NotoSansTamilSupplement-Regular.ufo
<glyph name="OneThreeHundredandTwentieth" format="2">
  <advance width="1840"/>
  <unicode hex="11FC0"/>
  <guideline x="57" y="153" angle="270"/>
  <outline>
    <contour>
      <point x="57" y="243" type="curve" smooth="yes"/>
      <point x="57" y="63"/>
      <point x="142" y="-12"/>
      <point x="249" y="-12" type="curve" smooth="yes"/>
      <point x="356" y="-12"/>
      <point x="422" y="54"/>
      <point x="422" y="165" type="curve" smooth="yes"/>
      <point x="422" y="265"/>
      <point x="357" y="328"/>
      <point x="261" y="328" type="curve" smooth="yes"/>
      <point x="218" y="328"/>
      <point x="175" y="313"/>
      <point x="140" y="290" type="curve"/>
      <point x="158" y="408"/>
      <point x="237" y="492"/>
      <point x="360" y="492" type="curve" smooth="yes"/>
      <point x="484" y="492"/>
      <point x="563" y="411"/>
      <point x="563" y="269" type="curve" smooth="yes"/>
      <point x="563" y="178"/>
      <point x="542" y="109"/>
      <point x="511" y="63" type="curve"/>
      <point x="515" y="0" type="line"/>
      <point x="922" y="0" type="line"/>
      <point x="922" y="355" type="line" smooth="yes"/>
      <point x="922" y="446"/>
      <point x="965" y="494"/>
      <point x="1030" y="494" type="curve" smooth="yes"/>
      <point x="1065" y="494"/>
      <point x="1094" y="483"/>
      <point x="1116" y="461" type="curve" smooth="yes"/>
      <point x="1148" y="429"/>
      <point x="1165" y="377"/>
      <point x="1173" y="315" type="curve" smooth="yes"/>
      <point x="1175" y="303" type="line"/>
      <point x="1097" y="274"/>
      <point x="1064" y="221"/>
      <point x="1064" y="152" type="curve" smooth="yes"/>
      <point x="1064" y="47"/>
      <point x="1155" y="-12"/>
      <point x="1276" y="-12" type="curve" smooth="yes"/>
      <point x="1360" y="-12"/>
      <point x="1425" y="6"/>
      <point x="1467" y="57" type="curve" smooth="yes"/>
      <point x="1495" y="91"/>
      <point x="1511" y="136"/>
      <point x="1511" y="226" type="curve" smooth="yes"/>
      <point x="1511" y="257" type="line"/>
      <point x="1610" y="253"/>
      <point x="1706" y="223"/>
      <point x="1706" y="105" type="curve" smooth="yes"/>
      <point x="1706" y="55"/>
      <point x="1692" y="16"/>
      <point x="1665" y="-13" type="curve" smooth="yes"/>
      <point x="1619" y="-63"/>
      <point x="1547" y="-84"/>
      <point x="1369" y="-84" type="curve" smooth="yes"/>
      <point x="1034" y="-84" type="line" smooth="yes"/>
      <point x="967" y="-84"/>
      <point x="928" y="-94"/>
      <point x="893" y="-119" type="curve" smooth="yes"/>
      <point x="859" y="-144"/>
      <point x="836" y="-184"/>
      <point x="836" y="-243" type="curve" smooth="yes"/>
      <point x="836" y="-266"/>
      <point x="839" y="-297"/>
      <point x="843" y="-321" type="curve"/>
      <point x="925" y="-317" type="line"/>
      <point x="923" y="-301"/>
      <point x="922" y="-283"/>
      <point x="922" y="-263" type="curve" smooth="yes"/>
      <point x="922" y="-219"/>
      <point x="934" y="-194"/>
      <point x="956" y="-179" type="curve" smooth="yes"/>
      <point x="978" y="-164"/>
      <point x="1004" y="-156"/>
      <point x="1061" y="-156" type="curve" smooth="yes"/>
      <point x="1400" y="-156" type="line" smooth="yes"/>
      <point x="1544" y="-156"/>
      <point x="1630" y="-141"/>
      <point x="1696" y="-94" type="curve" smooth="yes"/>
      <point x="1758" y="-50"/>
      <point x="1792" y="9"/>
      <point x="1792" y="98" type="curve" smooth="yes"/>
      <point x="1792" y="265"/>
      <point x="1675" y="324"/>
      <point x="1511" y="328" type="curve"/>
      <point x="1511" y="482" type="line"/>
      <point x="1698" y="482" type="line"/>
      <point x="1698" y="554" type="line"/>
      <point x="1187" y="554" type="line"/>
      <point x="1187" y="477" type="line"/>
      <point x="1181" y="489"/>
      <point x="1173" y="500"/>
      <point x="1164" y="509" type="curve" smooth="yes"/>
      <point x="1129" y="546"/>
      <point x="1085" y="566"/>
      <point x="1021" y="566" type="curve" smooth="yes"/>
      <point x="908" y="566"/>
      <point x="836" y="495"/>
      <point x="836" y="357" type="curve" smooth="yes"/>
      <point x="836" y="72" type="line"/>
      <point x="603" y="72" type="line"/>
      <point x="630" y="131"/>
      <point x="651" y="194"/>
      <point x="651" y="280" type="curve" smooth="yes"/>
      <point x="651" y="437"/>
      <point x="567" y="566"/>
      <point x="364" y="566" type="curve" smooth="yes"/>
      <point x="199" y="566"/>
      <point x="57" y="457"/>
    </contour>
    <contour>
      <point x="137" y="212" type="curve"/>
      <point x="169" y="240"/>
      <point x="206" y="258"/>
      <point x="247" y="258" type="curve" smooth="yes"/>
      <point x="302" y="258"/>
      <point x="340" y="221"/>
      <point x="340" y="155" type="curve" smooth="yes"/>
      <point x="340" y="91"/>
      <point x="305" y="56"/>
      <point x="253" y="56" type="curve" smooth="yes"/>
      <point x="191" y="56"/>
      <point x="143" y="97"/>
    </contour>
    <contour>
      <point x="1150" y="153" type="curve" smooth="yes"/>
      <point x="1150" y="191"/>
      <point x="1164" y="215"/>
      <point x="1193" y="232" type="curve" smooth="yes"/>
      <point x="1226" y="251"/>
      <point x="1272" y="258"/>
      <point x="1340" y="258" type="curve" smooth="yes"/>
      <point x="1426" y="258" type="line"/>
      <point x="1426" y="213" type="line" smooth="yes"/>
      <point x="1426" y="94"/>
      <point x="1371" y="60"/>
      <point x="1284" y="60" type="curve" smooth="yes"/>
      <point x="1207" y="60"/>
      <point x="1150" y="91"/>
    </contour>
    <contour>
      <point x="1254" y="322" type="curve"/>
      <point x="1254" y="482" type="line"/>
      <point x="1426" y="482" type="line"/>
      <point x="1426" y="328" type="line"/>
      <point x="1347" y="328" type="line" smooth="yes"/>
      <point x="1313" y="328"/>
      <point x="1282" y="326"/>
    </contour>
  </outline>
</glyph>
<glyph name="OneHundredandSixtieth" format="2">
  <advance width="884"/>
  <unicode hex="11FC1"/>
  <outline>
    <contour>
      <point x="58" y="765" type="curve"/>
      <point x="81" y="701" type="line"/>
      <point x="158" y="734"/>
      <point x="265" y="767"/>
      <point x="410" y="767" type="curve" smooth="yes"/>
      <point x="603" y="767"/>
      <point x="734" y="677"/>
      <point x="734" y="390" type="curve" smooth="yes"/>
      <point x="734" y="146"/>
      <point x="673" y="60"/>
      <point x="573" y="60" type="curve" smooth="yes"/>
      <point x="474" y="60"/>
      <point x="434" y="138"/>
      <point x="434" y="276" type="curve" smooth="yes"/>
      <point x="434" y="343"/>
      <point x="441" y="414"/>
      <point x="460" y="482" type="curve"/>
      <point x="589" y="482" type="line"/>
      <point x="589" y="554" type="line"/>
      <point x="88" y="554" type="line"/>
      <point x="88" y="0" type="line"/>
      <point x="174" y="0" type="line"/>
      <point x="174" y="482" type="line"/>
      <point x="373" y="482" type="line"/>
      <point x="355" y="412"/>
      <point x="348" y="343"/>
      <point x="348" y="272" type="curve" smooth="yes"/>
      <point x="348" y="90"/>
      <point x="423" y="-16"/>
      <point x="573" y="-16" type="curve" smooth="yes"/>
      <point x="740" y="-16"/>
      <point x="821" y="114"/>
      <point x="821" y="390" type="curve" smooth="yes"/>
      <point x="821" y="730"/>
      <point x="651" y="843"/>
      <point x="411" y="843" type="curve" smooth="yes"/>
      <point x="262" y="843"/>
      <point x="142" y="805"/>
    </contour>
  </outline>
</glyph>
<glyph name="OneEightieth" format="2">
  <advance width="677"/>
  <unicode hex="11FC2"/>
  <outline>
    <contour>
      <point x="68" y="423" type="curve" smooth="yes"/>
      <point x="68" y="328"/>
      <point x="135" y="283"/>
      <point x="219" y="283" type="curve" smooth="yes"/>
      <point x="308" y="283"/>
      <point x="365" y="331"/>
      <point x="365" y="411" type="curve" smooth="yes"/>
      <point x="365" y="437"/>
      <point x="360" y="471"/>
      <point x="346" y="504" type="curve"/>
      <point x="427" y="494"/>
      <point x="475" y="444"/>
      <point x="475" y="367" type="curve" smooth="yes"/>
      <point x="475" y="283"/>
      <point x="409" y="246"/>
      <point x="325" y="209" type="curve" smooth="yes"/>
      <point x="272" y="186" type="line" smooth="yes"/>
      <point x="136" y="127"/>
      <point x="80" y="59"/>
      <point x="80" y="-50" type="curve" smooth="yes"/>
      <point x="80" y="-181"/>
      <point x="185" y="-271"/>
      <point x="352" y="-271" type="curve" smooth="yes"/>
      <point x="523" y="-271"/>
      <point x="617" y="-175"/>
      <point x="617" y="-42" type="curve" smooth="yes"/>
      <point x="617" y="57"/>
      <point x="575" y="126"/>
      <point x="486" y="174" type="curve"/>
      <point x="442" y="108" type="line"/>
      <point x="503" y="74"/>
      <point x="533" y="25"/>
      <point x="533" y="-42" type="curve" smooth="yes"/>
      <point x="533" y="-135"/>
      <point x="465" y="-197"/>
      <point x="352" y="-197" type="curve" smooth="yes"/>
      <point x="234" y="-197"/>
      <point x="165" y="-135"/>
      <point x="165" y="-51" type="curve" smooth="yes"/>
      <point x="165" y="21"/>
      <point x="200" y="75"/>
      <point x="313" y="123" type="curve" smooth="yes"/>
      <point x="348" y="138" type="line" smooth="yes"/>
      <point x="476" y="194"/>
      <point x="558" y="245"/>
      <point x="558" y="370" type="curve" smooth="yes"/>
      <point x="558" y="442"/>
      <point x="527" y="504"/>
      <point x="460" y="539" type="curve" smooth="yes"/>
      <point x="418" y="561"/>
      <point x="363" y="573"/>
      <point x="292" y="573" type="curve" smooth="yes"/>
      <point x="143" y="573"/>
      <point x="68" y="509"/>
    </contour>
    <contour>
      <point x="142" y="419" type="curve" smooth="yes"/>
      <point x="142" y="478"/>
      <point x="197" y="507"/>
      <point x="272" y="507" type="curve" smooth="yes"/>
      <point x="275" y="507" type="line"/>
      <point x="289" y="480"/>
      <point x="295" y="452"/>
      <point x="295" y="425" type="curve" smooth="yes"/>
      <point x="295" y="369"/>
      <point x="263" y="347"/>
      <point x="219" y="347" type="curve" smooth="yes"/>
      <point x="170" y="347"/>
      <point x="142" y="376"/>
    </contour>
  </outline>
</glyph>
<glyph name="OneSixtyFourth" format="2">
  <advance width="1340"/>
  <unicode hex="11FC3"/>
  <guideline x="894" y="536" angle="90"/>
  <guideline x="960" y="542" angle="90"/>
  <outline>
    <contour>
      <point x="48" y="423" type="curve" smooth="yes"/>
      <point x="48" y="328"/>
      <point x="115" y="283"/>
      <point x="199" y="283" type="curve" smooth="yes"/>
      <point x="288" y="283"/>
      <point x="345" y="331"/>
      <point x="345" y="411" type="curve" smooth="yes"/>
      <point x="345" y="437"/>
      <point x="340" y="471"/>
      <point x="326" y="504" type="curve"/>
      <point x="407" y="494"/>
      <point x="455" y="444"/>
      <point x="455" y="367" type="curve" smooth="yes"/>
      <point x="455" y="284"/>
      <point x="406" y="252"/>
      <point x="344" y="213" type="curve" smooth="yes"/>
      <point x="297" y="184" type="line" smooth="yes"/>
      <point x="200" y="124"/>
      <point x="150" y="70"/>
      <point x="150" y="-32" type="curve" smooth="yes"/>
      <point x="150" y="-165"/>
      <point x="256" y="-254"/>
      <point x="443" y="-254" type="curve" smooth="yes"/>
      <point x="659" y="-254"/>
      <point x="759" y="-131"/>
      <point x="759" y="55" type="curve" smooth="yes"/>
      <point x="759" y="237"/>
      <point x="704" y="419"/>
      <point x="704" y="601" type="curve" smooth="yes"/>
      <point x="704" y="719"/>
      <point x="757" y="790"/>
      <point x="849" y="790" type="curve" smooth="yes"/>
      <point x="864" y="790"/>
      <point x="876" y="788"/>
      <point x="886" y="785" type="curve"/>
      <point x="840" y="754"/>
      <point x="813" y="705"/>
      <point x="813" y="648" type="curve" smooth="yes"/>
      <point x="813" y="574"/>
      <point x="864" y="525"/>
      <point x="936" y="525" type="curve" smooth="yes"/>
      <point x="1012" y="525"/>
      <point x="1058" y="574"/>
      <point x="1058" y="648" type="curve" smooth="yes"/>
      <point x="1058" y="703"/>
      <point x="1037" y="746"/>
      <point x="990" y="781" type="curve"/>
      <point x="1003" y="784"/>
      <point x="1018" y="786"/>
      <point x="1034" y="786" type="curve" smooth="yes"/>
      <point x="1112" y="786"/>
      <point x="1149" y="735"/>
      <point x="1149" y="658" type="curve" smooth="yes"/>
      <point x="1149" y="608"/>
      <point x="1137" y="577"/>
      <point x="1117" y="542" type="curve"/>
      <point x="1121" y="496" type="line"/>
      <point x="1340" y="496" type="line"/>
      <point x="1340" y="554" type="line"/>
      <point x="1197" y="554" type="line"/>
      <point x="1216" y="589"/>
      <point x="1224" y="632"/>
      <point x="1224" y="669" type="curve" smooth="yes"/>
      <point x="1224" y="774"/>
      <point x="1163" y="847"/>
      <point x="1046" y="847" type="curve" smooth="yes"/>
      <point x="1005" y="847"/>
      <point x="969" y="838"/>
      <point x="938" y="820" type="curve"/>
      <point x="912" y="836"/>
      <point x="879" y="847"/>
      <point x="835" y="847" type="curve" smooth="yes"/>
      <point x="711" y="847"/>
      <point x="618" y="766"/>
      <point x="618" y="612" type="curve" smooth="yes"/>
      <point x="618" y="429"/>
      <point x="673" y="246"/>
      <point x="673" y="63" type="curve" smooth="yes"/>
      <point x="673" y="-85"/>
      <point x="599" y="-178"/>
      <point x="443" y="-178" type="curve" smooth="yes"/>
      <point x="314" y="-178"/>
      <point x="236" y="-122"/>
      <point x="236" y="-33" type="curve" smooth="yes"/>
      <point x="236" y="33"/>
      <point x="267" y="75"/>
      <point x="339" y="120" type="curve" smooth="yes"/>
      <point x="385" y="149" type="line" smooth="yes"/>
      <point x="477" y="207"/>
      <point x="538" y="250"/>
      <point x="538" y="367" type="curve" smooth="yes"/>
      <point x="538" y="440"/>
      <point x="507" y="504"/>
      <point x="440" y="539" type="curve" smooth="yes"/>
      <point x="398" y="561"/>
      <point x="343" y="573"/>
      <point x="272" y="573" type="curve" smooth="yes"/>
      <point x="123" y="573"/>
      <point x="48" y="509"/>
    </contour>
    <contour>
      <point x="122" y="419" type="curve" smooth="yes"/>
      <point x="122" y="478"/>
      <point x="177" y="507"/>
      <point x="252" y="507" type="curve" smooth="yes"/>
      <point x="255" y="507" type="line"/>
      <point x="269" y="480"/>
      <point x="275" y="452"/>
      <point x="275" y="425" type="curve" smooth="yes"/>
      <point x="275" y="369"/>
      <point x="243" y="347"/>
      <point x="199" y="347" type="curve" smooth="yes"/>
      <point x="150" y="347"/>
      <point x="122" y="376"/>
    </contour>
    <contour>
      <point x="879" y="656" type="curve" smooth="yes"/>
      <point x="879" y="700"/>
      <point x="898" y="737"/>
      <point x="936" y="762" type="curve"/>
      <point x="975" y="737"/>
      <point x="993" y="700"/>
      <point x="993" y="656" type="curve" smooth="yes"/>
      <point x="993" y="609"/>
      <point x="968" y="585"/>
      <point x="936" y="585" type="curve" smooth="yes"/>
      <point x="905" y="585"/>
      <point x="879" y="609"/>
    </contour>
  </outline>
</glyph>
<glyph name="OneFortieth" format="2">
  <advance width="1093"/>
  <unicode hex="11FC4"/>
  <outline>
    <contour>
      <point x="49" y="152" type="curve" smooth="yes"/>
      <point x="49" y="47"/>
      <point x="140" y="-12"/>
      <point x="261" y="-12" type="curve" smooth="yes"/>
      <point x="345" y="-12"/>
      <point x="411" y="6"/>
      <point x="452" y="57" type="curve" smooth="yes"/>
      <point x="480" y="91"/>
      <point x="496" y="137"/>
      <point x="496" y="226" type="curve" smooth="yes"/>
      <point x="496" y="258" type="line"/>
      <point x="641" y="258" type="line" smooth="yes"/>
      <point x="686" y="258"/>
      <point x="712" y="271"/>
      <point x="724" y="296" type="curve"/>
      <point x="738" y="271"/>
      <point x="767" y="258"/>
      <point x="816" y="258" type="curve" smooth="yes"/>
      <point x="861" y="258" type="line" smooth="yes"/>
      <point x="890" y="258"/>
      <point x="912" y="264"/>
      <point x="927" y="278" type="curve"/>
      <point x="927" y="0" type="line"/>
      <point x="1005" y="0" type="line"/>
      <point x="1005" y="554" type="line"/>
      <point x="922" y="554" type="line"/>
      <point x="922" y="384" type="line" smooth="yes"/>
      <point x="922" y="343"/>
      <point x="898" y="328"/>
      <point x="856" y="328" type="curve" smooth="yes"/>
      <point x="831" y="328" type="line" smooth="yes"/>
      <point x="789" y="328"/>
      <point x="765" y="343"/>
      <point x="765" y="384" type="curve" smooth="yes"/>
      <point x="765" y="554" type="line"/>
      <point x="682" y="554" type="line"/>
      <point x="682" y="384" type="line" smooth="yes"/>
      <point x="682" y="343"/>
      <point x="662" y="328"/>
      <point x="626" y="328" type="curve" smooth="yes"/>
      <point x="496" y="328" type="line"/>
      <point x="496" y="482" type="line"/>
      <point x="623" y="482" type="line"/>
      <point x="623" y="554" type="line"/>
      <point x="160" y="554" type="line"/>
      <point x="160" y="303" type="line"/>
      <point x="82" y="274"/>
      <point x="49" y="221"/>
    </contour>
    <contour>
      <point x="135" y="153" type="curve" smooth="yes"/>
      <point x="135" y="191"/>
      <point x="149" y="215"/>
      <point x="178" y="232" type="curve" smooth="yes"/>
      <point x="211" y="251"/>
      <point x="257" y="258"/>
      <point x="325" y="258" type="curve" smooth="yes"/>
      <point x="411" y="258" type="line"/>
      <point x="411" y="213" type="line" smooth="yes"/>
      <point x="411" y="94"/>
      <point x="356" y="60"/>
      <point x="269" y="60" type="curve" smooth="yes"/>
      <point x="192" y="60"/>
      <point x="135" y="91"/>
    </contour>
    <contour>
      <point x="239" y="322" type="curve"/>
      <point x="239" y="482" type="line"/>
      <point x="411" y="482" type="line"/>
      <point x="411" y="328" type="line"/>
      <point x="332" y="328" type="line" smooth="yes"/>
      <point x="298" y="328"/>
      <point x="267" y="326"/>
    </contour>
  </outline>
</glyph>
<glyph name="OneThirtySecond" format="2">
  <advance width="1319"/>
  <unicode hex="11FC5"/>
  <outline>
    <contour>
      <point x="49" y="152" type="curve" smooth="yes"/>
      <point x="49" y="47"/>
      <point x="140" y="-12"/>
      <point x="261" y="-12" type="curve" smooth="yes"/>
      <point x="345" y="-12"/>
      <point x="411" y="6"/>
      <point x="452" y="57" type="curve" smooth="yes"/>
      <point x="480" y="91"/>
      <point x="496" y="137"/>
      <point x="496" y="226" type="curve" smooth="yes"/>
      <point x="496" y="258" type="line"/>
      <point x="641" y="258" type="line" smooth="yes"/>
      <point x="693" y="258"/>
      <point x="719" y="275"/>
      <point x="729" y="308" type="curve"/>
      <point x="749" y="275"/>
      <point x="787" y="258"/>
      <point x="853" y="258" type="curve" smooth="yes"/>
      <point x="856" y="258" type="line" smooth="yes"/>
      <point x="951" y="258"/>
      <point x="1006" y="297"/>
      <point x="1012" y="390" type="curve"/>
      <point x="1033" y="369"/>
      <point x="1070" y="354"/>
      <point x="1119" y="354" type="curve" smooth="yes"/>
      <point x="1225" y="354"/>
      <point x="1289" y="420"/>
      <point x="1289" y="527" type="curve" smooth="yes"/>
      <point x="1289" y="645"/>
      <point x="1224" y="712"/>
      <point x="1104" y="733" type="curve"/>
      <point x="1084" y="659" type="line"/>
      <point x="1162" y="645"/>
      <point x="1205" y="601"/>
      <point x="1205" y="530" type="curve" smooth="yes"/>
      <point x="1205" y="466"/>
      <point x="1172" y="425"/>
      <point x="1112" y="425" type="curve" smooth="yes"/>
      <point x="1045" y="425"/>
      <point x="1015" y="463"/>
      <point x="1015" y="518" type="curve" smooth="yes"/>
      <point x="1015" y="554" type="line"/>
      <point x="932" y="554" type="line"/>
      <point x="932" y="404" type="line" smooth="yes"/>
      <point x="932" y="348"/>
      <point x="902" y="328"/>
      <point x="849" y="328" type="curve" smooth="yes"/>
      <point x="843" y="328" type="line" smooth="yes"/>
      <point x="793" y="328"/>
      <point x="765" y="348"/>
      <point x="765" y="404" type="curve" smooth="yes"/>
      <point x="765" y="554" type="line"/>
      <point x="682" y="554" type="line"/>
      <point x="682" y="384" type="line" smooth="yes"/>
      <point x="682" y="343"/>
      <point x="662" y="328"/>
      <point x="626" y="328" type="curve" smooth="yes"/>
      <point x="496" y="328" type="line"/>
      <point x="496" y="482" type="line"/>
      <point x="623" y="482" type="line"/>
      <point x="623" y="554" type="line"/>
      <point x="160" y="554" type="line"/>
      <point x="160" y="303" type="line"/>
      <point x="82" y="274"/>
      <point x="49" y="221"/>
    </contour>
    <contour>
      <point x="135" y="153" type="curve" smooth="yes"/>
      <point x="135" y="191"/>
      <point x="149" y="215"/>
      <point x="178" y="232" type="curve" smooth="yes"/>
      <point x="211" y="251"/>
      <point x="257" y="258"/>
      <point x="325" y="258" type="curve" smooth="yes"/>
      <point x="411" y="258" type="line"/>
      <point x="411" y="213" type="line" smooth="yes"/>
      <point x="411" y="94"/>
      <point x="356" y="60"/>
      <point x="269" y="60" type="curve" smooth="yes"/>
      <point x="192" y="60"/>
      <point x="135" y="91"/>
    </contour>
    <contour>
      <point x="239" y="322" type="curve"/>
      <point x="239" y="482" type="line"/>
      <point x="411" y="482" type="line"/>
      <point x="411" y="328" type="line"/>
      <point x="332" y="328" type="line" smooth="yes"/>
      <point x="298" y="328"/>
      <point x="267" y="326"/>
    </contour>
  </outline>
</glyph>
<glyph name="ThreeEightieths" format="2">
  <advance width="1415"/>
  <unicode hex="11FC6"/>
  <outline>
    <contour>
      <point x="88" y="0" type="line"/>
      <point x="174" y="0" type="line"/>
      <point x="174" y="482" type="line"/>
      <point x="344" y="482" type="line"/>
      <point x="344" y="144" type="line"/>
      <point x="430" y="144" type="line"/>
      <point x="430" y="246" type="line"/>
      <point x="459" y="269"/>
      <point x="500" y="289"/>
      <point x="543" y="289" type="curve" smooth="yes"/>
      <point x="595" y="289"/>
      <point x="632" y="263"/>
      <point x="632" y="192" type="curve" smooth="yes"/>
      <point x="632" y="146"/>
      <point x="617" y="105"/>
      <point x="595" y="72" type="curve"/>
      <point x="344" y="72" type="line"/>
      <point x="344" y="0" type="line"/>
      <point x="930" y="0" type="line" smooth="yes"/>
      <point x="1042" y="0"/>
      <point x="1126" y="37"/>
      <point x="1126" y="134" type="curve" smooth="yes"/>
      <point x="1126" y="166"/>
      <point x="1115" y="208"/>
      <point x="1100" y="242" type="curve"/>
      <point x="1183" y="235"/>
      <point x="1231" y="193"/>
      <point x="1231" y="120" type="curve" smooth="yes"/>
      <point x="1231" y="44"/>
      <point x="1165" y="11"/>
      <point x="1081" y="-22" type="curve" smooth="yes"/>
      <point x="1028" y="-43" type="line" smooth="yes"/>
      <point x="892" y="-97"/>
      <point x="835" y="-149"/>
      <point x="835" y="-253" type="curve" smooth="yes"/>
      <point x="835" y="-377"/>
      <point x="929" y="-451"/>
      <point x="1097" y="-451" type="curve" smooth="yes"/>
      <point x="1257" y="-451"/>
      <point x="1355" y="-370"/>
      <point x="1355" y="-252" type="curve" smooth="yes"/>
      <point x="1355" y="-166"/>
      <point x="1314" y="-112"/>
      <point x="1226" y="-70" type="curve"/>
      <point x="1184" y="-135" type="line"/>
      <point x="1239" y="-163"/>
      <point x="1269" y="-197"/>
      <point x="1269" y="-252" type="curve" smooth="yes"/>
      <point x="1269" y="-329"/>
      <point x="1198" y="-377"/>
      <point x="1097" y="-377" type="curve" smooth="yes"/>
      <point x="988" y="-377"/>
      <point x="921" y="-331"/>
      <point x="921" y="-254" type="curve" smooth="yes"/>
      <point x="921" y="-193"/>
      <point x="955" y="-150"/>
      <point x="1069" y="-108" type="curve" smooth="yes"/>
      <point x="1104" y="-95" type="line" smooth="yes"/>
      <point x="1233" y="-47"/>
      <point x="1317" y="5"/>
      <point x="1317" y="123" type="curve" smooth="yes"/>
      <point x="1317" y="246"/>
      <point x="1210" y="310"/>
      <point x="1058" y="310" type="curve" smooth="yes"/>
      <point x="909" y="310"/>
      <point x="817" y="249"/>
      <point x="817" y="144" type="curve" smooth="yes"/>
      <point x="817" y="112"/>
      <point x="828" y="83"/>
      <point x="847" y="66" type="curve"/>
      <point x="676" y="66" type="line"/>
      <point x="701" y="104"/>
      <point x="718" y="151"/>
      <point x="718" y="201" type="curve" smooth="yes"/>
      <point x="718" y="302"/>
      <point x="658" y="362"/>
      <point x="558" y="362" type="curve" smooth="yes"/>
      <point x="499" y="362"/>
      <point x="456" y="340"/>
      <point x="430" y="324" type="curve"/>
      <point x="430" y="482" type="line"/>
      <point x="604" y="482" type="line"/>
      <point x="604" y="554" type="line"/>
      <point x="88" y="554" type="line"/>
    </contour>
    <contour>
      <point x="898" y="140" type="curve" smooth="yes"/>
      <point x="898" y="208"/>
      <point x="951" y="242"/>
      <point x="1026" y="244" type="curve"/>
      <point x="1042" y="211"/>
      <point x="1051" y="175"/>
      <point x="1051" y="143" type="curve" smooth="yes"/>
      <point x="1051" y="88"/>
      <point x="1018" y="66"/>
      <point x="972" y="66" type="curve" smooth="yes"/>
      <point x="925" y="66"/>
      <point x="898" y="92"/>
    </contour>
  </outline>
</glyph>
<glyph name="ThreeSixtyFourths" format="2">
  <advance width="1305"/>
  <unicode hex="11FC7"/>
  <outline>
    <contour>
      <point x="49" y="152" type="curve" smooth="yes"/>
      <point x="49" y="47"/>
      <point x="140" y="-12"/>
      <point x="261" y="-12" type="curve" smooth="yes"/>
      <point x="345" y="-12"/>
      <point x="411" y="6"/>
      <point x="452" y="57" type="curve" smooth="yes"/>
      <point x="480" y="91"/>
      <point x="496" y="136"/>
      <point x="496" y="226" type="curve" smooth="yes"/>
      <point x="496" y="258" type="line"/>
      <point x="706" y="258"/>
      <point x="818" y="195"/>
      <point x="823" y="52" type="curve"/>
      <point x="795" y="86"/>
      <point x="751" y="117"/>
      <point x="689" y="117" type="curve" smooth="yes"/>
      <point x="603" y="117"/>
      <point x="549" y="65"/>
      <point x="548" y="-14" type="curve" smooth="yes"/>
      <point x="547" y="-96"/>
      <point x="610" y="-148"/>
      <point x="702" y="-148" type="curve" smooth="yes"/>
      <point x="778" y="-148"/>
      <point x="833" y="-116"/>
      <point x="864" y="-63" type="curve"/>
      <point x="900" y="-89"/>
      <point x="945" y="-107"/>
      <point x="1002" y="-107" type="curve" smooth="yes"/>
      <point x="1154" y="-107"/>
      <point x="1235" y="5"/>
      <point x="1235" y="215" type="curve" smooth="yes"/>
      <point x="1235" y="340"/>
      <point x="1189" y="461"/>
      <point x="1093" y="566" type="curve"/>
      <point x="1022" y="515" type="line"/>
      <point x="1104" y="427"/>
      <point x="1146" y="322"/>
      <point x="1146" y="215" type="curve" smooth="yes"/>
      <point x="1146" y="40"/>
      <point x="1085" y="-35"/>
      <point x="993" y="-35" type="curve" smooth="yes"/>
      <point x="950" y="-35"/>
      <point x="918" y="-24"/>
      <point x="888" y="-2" type="curve"/>
      <point x="891" y="17"/>
      <point x="893" y="40"/>
      <point x="893" y="61" type="curve" smooth="yes"/>
      <point x="893" y="248"/>
      <point x="749" y="322"/>
      <point x="496" y="328" type="curve"/>
      <point x="496" y="482" type="line"/>
      <point x="683" y="482" type="line"/>
      <point x="683" y="554" type="line"/>
      <point x="160" y="554" type="line"/>
      <point x="160" y="303" type="line"/>
      <point x="82" y="274"/>
      <point x="49" y="221"/>
    </contour>
    <contour>
      <point x="135" y="153" type="curve" smooth="yes"/>
      <point x="135" y="191"/>
      <point x="149" y="215"/>
      <point x="178" y="232" type="curve" smooth="yes"/>
      <point x="211" y="251"/>
      <point x="257" y="258"/>
      <point x="325" y="258" type="curve" smooth="yes"/>
      <point x="411" y="258" type="line"/>
      <point x="411" y="213" type="line" smooth="yes"/>
      <point x="411" y="94"/>
      <point x="356" y="60"/>
      <point x="269" y="60" type="curve" smooth="yes"/>
      <point x="192" y="60"/>
      <point x="135" y="91"/>
    </contour>
    <contour>
      <point x="239" y="322" type="curve"/>
      <point x="239" y="482" type="line"/>
      <point x="411" y="482" type="line"/>
      <point x="411" y="328" type="line"/>
      <point x="332" y="328" type="line" smooth="yes"/>
      <point x="298" y="328"/>
      <point x="267" y="326"/>
    </contour>
    <contour>
      <point x="620" y="-16" type="curve" smooth="yes"/>
      <point x="620" y="23"/>
      <point x="646" y="53"/>
      <point x="693" y="53" type="curve" smooth="yes"/>
      <point x="734" y="53"/>
      <point x="771" y="27"/>
      <point x="812" y="-17" type="curve"/>
      <point x="797" y="-55"/>
      <point x="760" y="-86"/>
      <point x="705" y="-86" type="curve" smooth="yes"/>
      <point x="653" y="-86"/>
      <point x="620" y="-58"/>
    </contour>
  </outline>
</glyph>
<glyph name="OneTwentieth" format="2">
  <advance width="770"/>
  <unicode hex="11FC8"/>
  <outline>
    <contour>
      <point x="478" y="0" type="line" smooth="yes"/>
      <point x="613" y="0"/>
      <point x="686" y="56"/>
      <point x="686" y="185" type="curve" smooth="yes"/>
      <point x="686" y="554" type="line"/>
      <point x="600" y="554" type="line"/>
      <point x="600" y="191" type="line" smooth="yes"/>
      <point x="600" y="110"/>
      <point x="559" y="72"/>
      <point x="472" y="72" type="curve" smooth="yes"/>
      <point x="298" y="72" type="line" smooth="yes"/>
      <point x="211" y="72"/>
      <point x="170" y="110"/>
      <point x="170" y="191" type="curve" smooth="yes"/>
      <point x="170" y="554" type="line"/>
      <point x="84" y="554" type="line"/>
      <point x="84" y="185" type="line" smooth="yes"/>
      <point x="84" y="56"/>
      <point x="157" y="0"/>
      <point x="292" y="0" type="curve" smooth="yes"/>
    </contour>
  </outline>
</glyph>
<glyph name="OneSixteenth_1" format="2">
  <advance width="1374"/>
  <unicode hex="11FC9"/>
  <guideline x="286" y="114" angle="90"/>
  <guideline x="233" y="114" angle="90"/>
  <guideline x="339" y="114" angle="90"/>
  <guideline x="173" y="114" angle="90"/>
  <guideline x="400" y="114" angle="90"/>
  <outline>
    <contour>
      <point x="705" y="437" type="curve"/>
      <point x="705" y="473"/>
      <point x="726" y="493"/>
      <point x="756" y="493" type="curve" smooth="yes"/>
      <point x="778" y="493"/>
      <point x="795" y="481"/>
      <point x="825" y="445" type="curve" smooth="yes"/>
      <point x="840" y="427" type="line" smooth="yes"/>
      <point x="892" y="365"/>
      <point x="959" y="316"/>
      <point x="1073" y="316" type="curve" smooth="yes"/>
      <point x="1219" y="316"/>
      <point x="1310" y="409"/>
      <point x="1310" y="549" type="curve" smooth="yes"/>
      <point x="1310" y="702"/>
      <point x="1203" y="792"/>
      <point x="1059" y="817" type="curve"/>
      <point x="1043" y="743" type="line"/>
      <point x="1160" y="722"/>
      <point x="1224" y="653"/>
      <point x="1224" y="550" type="curve" smooth="yes"/>
      <point x="1224" y="452"/>
      <point x="1160" y="392"/>
      <point x="1073" y="392" type="curve" smooth="yes"/>
      <point x="1003" y="392"/>
      <point x="951" y="417"/>
      <point x="905" y="468" type="curve" smooth="yes"/>
      <point x="886" y="489" type="line" smooth="yes"/>
      <point x="835" y="545"/>
      <point x="807" y="565"/>
      <point x="745" y="565" type="curve" smooth="yes"/>
      <point x="681" y="565"/>
      <point x="620" y="526"/>
      <point x="620" y="437" type="curve"/>
      <point x="620" y="389"/>
      <point x="626" y="338"/>
      <point x="626" y="286" type="curve" smooth="yes"/>
      <point x="626" y="141"/>
      <point x="531" y="72"/>
      <point x="415" y="72" type="curve" smooth="yes"/>
      <point x="280" y="72"/>
      <point x="170" y="131"/>
      <point x="170" y="321" type="curve" smooth="yes"/>
      <point x="170" y="421"/>
      <point x="171" y="480"/>
      <point x="174" y="554" type="curve"/>
      <point x="88" y="554" type="line"/>
      <point x="85" y="484"/>
      <point x="84" y="420"/>
      <point x="84" y="315" type="curve" smooth="yes"/>
      <point x="84" y="77"/>
      <point x="237" y="-4"/>
      <point x="411" y="-4" type="curve" smooth="yes"/>
      <point x="596" y="-4"/>
      <point x="712" y="92"/>
      <point x="712" y="280" type="curve" smooth="yes"/>
      <point x="712" y="342"/>
      <point x="705" y="385"/>
    </contour>
  </outline>
</glyph>
<glyph name="OneSixteenth_2" format="2">
  <advance width="1283"/>
  <unicode hex="11FCA"/>
  <outline>
    <contour>
      <point x="84" y="185" type="line" smooth="yes"/>
      <point x="84" y="56"/>
      <point x="157" y="0"/>
      <point x="292" y="0" type="curve" smooth="yes"/>
      <point x="478" y="0" type="line" smooth="yes"/>
      <point x="613" y="0"/>
      <point x="686" y="56"/>
      <point x="686" y="185" type="curve" smooth="yes"/>
      <point x="686" y="405" type="line" smooth="yes"/>
      <point x="686" y="528"/>
      <point x="761" y="587"/>
      <point x="868" y="587" type="curve" smooth="yes"/>
      <point x="974" y="587"/>
      <point x="1023" y="530"/>
      <point x="1023" y="446" type="curve" smooth="yes"/>
      <point x="1023" y="380"/>
      <point x="984" y="321"/>
      <point x="943" y="284" type="curve" smooth="yes"/>
      <point x="881" y="227" type="line" smooth="yes"/>
      <point x="806" y="158"/>
      <point x="766" y="98"/>
      <point x="766" y="11" type="curve" smooth="yes"/>
      <point x="766" y="-107"/>
      <point x="852" y="-201"/>
      <point x="1011" y="-201" type="curve" smooth="yes"/>
      <point x="1159" y="-201"/>
      <point x="1243" y="-110"/>
      <point x="1243" y="19" type="curve" smooth="yes"/>
      <point x="1243" y="137"/>
      <point x="1188" y="214"/>
      <point x="1091" y="263" type="curve"/>
      <point x="1043" y="193" type="line"/>
      <point x="1120" y="152"/>
      <point x="1157" y="103"/>
      <point x="1157" y="22" type="curve" smooth="yes"/>
      <point x="1157" y="-69"/>
      <point x="1101" y="-125"/>
      <point x="1011" y="-125" type="curve" smooth="yes"/>
      <point x="910" y="-125"/>
      <point x="853" y="-69"/>
      <point x="853" y="8" type="curve" smooth="yes"/>
      <point x="853" y="70"/>
      <point x="880" y="111"/>
      <point x="934" y="163" type="curve" smooth="yes"/>
      <point x="993" y="219" type="line" smooth="yes"/>
      <point x="1074" y="295"/>
      <point x="1113" y="350"/>
      <point x="1113" y="446" type="curve" smooth="yes"/>
      <point x="1113" y="580"/>
      <point x="1022" y="663"/>
      <point x="868" y="663" type="curve" smooth="yes"/>
      <point x="690" y="663"/>
      <point x="600" y="555"/>
      <point x="600" y="409" type="curve" smooth="yes"/>
      <point x="600" y="191" type="line" smooth="yes"/>
      <point x="600" y="110"/>
      <point x="559" y="72"/>
      <point x="472" y="72" type="curve" smooth="yes"/>
      <point x="298" y="72" type="line" smooth="yes"/>
      <point x="211" y="72"/>
      <point x="170" y="110"/>
      <point x="170" y="191" type="curve" smooth="yes"/>
      <point x="170" y="554" type="line"/>
      <point x="84" y="554" type="line"/>
    </contour>
  </outline>
</glyph>
<glyph name="OneTenth" format="2">
  <advance width="825"/>
  <unicode hex="11FCB"/>
  <outline>
    <contour>
      <point x="68" y="169" type="curve" smooth="yes"/>
      <point x="68" y="56"/>
      <point x="147" y="-12"/>
      <point x="273" y="-12" type="curve" smooth="yes"/>
      <point x="355" y="-12"/>
      <point x="419" y="20"/>
      <point x="444" y="77" type="curve"/>
      <point x="468" y="21"/>
      <point x="519" y="-12"/>
      <point x="609" y="-12" type="curve" smooth="yes"/>
      <point x="711" y="-12"/>
      <point x="785" y="52"/>
      <point x="785" y="171" type="curve" smooth="yes"/>
      <point x="785" y="240"/>
      <point x="771" y="286"/>
      <point x="748" y="334" type="curve"/>
      <point x="663" y="305" type="line"/>
      <point x="684" y="271"/>
      <point x="698" y="214"/>
      <point x="698" y="174" type="curve" smooth="yes"/>
      <point x="698" y="89"/>
      <point x="654" y="61"/>
      <point x="605" y="61" type="curve" smooth="yes"/>
      <point x="514" y="61"/>
      <point x="486" y="114"/>
      <point x="486" y="202" type="curve" smooth="yes"/>
      <point x="486" y="258" type="line"/>
      <point x="399" y="258" type="line"/>
      <point x="399" y="186" type="line" smooth="yes"/>
      <point x="399" y="102"/>
      <point x="362" y="61"/>
      <point x="279" y="61" type="curve" smooth="yes"/>
      <point x="195" y="61"/>
      <point x="155" y="106"/>
      <point x="155" y="169" type="curve" smooth="yes"/>
      <point x="155" y="243"/>
      <point x="206" y="282"/>
      <point x="297" y="305" type="curve" smooth="yes"/>
      <point x="383" y="327" type="line" smooth="yes"/>
      <point x="521" y="362"/>
      <point x="596" y="425"/>
      <point x="596" y="554" type="curve" smooth="yes"/>
      <point x="596" y="628"/>
      <point x="567" y="693"/>
      <point x="498" y="729" type="curve" smooth="yes"/>
      <point x="456" y="751"/>
      <point x="401" y="763"/>
      <point x="330" y="763" type="curve" smooth="yes"/>
      <point x="183" y="763"/>
      <point x="108" y="696"/>
      <point x="108" y="608" type="curve" smooth="yes"/>
      <point x="108" y="508"/>
      <point x="174" y="461"/>
      <point x="257" y="461" type="curve" smooth="yes"/>
      <point x="346" y="461"/>
      <point x="403" y="513"/>
      <point x="403" y="595" type="curve" smooth="yes"/>
      <point x="403" y="623"/>
      <point x="398" y="659"/>
      <point x="383" y="694" type="curve"/>
      <point x="463" y="684"/>
      <point x="513" y="632"/>
      <point x="513" y="555" type="curve" smooth="yes"/>
      <point x="513" y="458"/>
      <point x="448" y="416"/>
      <point x="358" y="393" type="curve" smooth="yes"/>
      <point x="259" y="368" type="line" smooth="yes"/>
      <point x="136" y="337"/>
      <point x="68" y="277"/>
    </contour>
    <contour>
      <point x="180" y="603" type="curve" smooth="yes"/>
      <point x="180" y="664"/>
      <point x="235" y="695"/>
      <point x="313" y="697" type="curve"/>
      <point x="327" y="668"/>
      <point x="333" y="638"/>
      <point x="333" y="609" type="curve" smooth="yes"/>
      <point x="333" y="550"/>
      <point x="301" y="527"/>
      <point x="257" y="527" type="curve" smooth="yes"/>
      <point x="208" y="527"/>
      <point x="180" y="558"/>
    </contour>
  </outline>
</glyph>
<glyph name="OneEighth" format="2">
  <advance width="1859"/>
  <unicode hex="11FCC"/>
  <outline>
    <contour>
      <point x="57" y="243" type="curve" smooth="yes"/>
      <point x="57" y="63"/>
      <point x="142" y="-12"/>
      <point x="249" y="-12" type="curve" smooth="yes"/>
      <point x="356" y="-12"/>
      <point x="422" y="54"/>
      <point x="422" y="165" type="curve" smooth="yes"/>
      <point x="422" y="265"/>
      <point x="357" y="328"/>
      <point x="261" y="328" type="curve" smooth="yes"/>
      <point x="218" y="328"/>
      <point x="175" y="313"/>
      <point x="140" y="290" type="curve"/>
      <point x="158" y="408"/>
      <point x="237" y="492"/>
      <point x="360" y="492" type="curve" smooth="yes"/>
      <point x="484" y="492"/>
      <point x="563" y="411"/>
      <point x="563" y="269" type="curve" smooth="yes"/>
      <point x="563" y="178"/>
      <point x="542" y="109"/>
      <point x="511" y="63" type="curve"/>
      <point x="515" y="0" type="line"/>
      <point x="896" y="0" type="line"/>
      <point x="896" y="327" type="line" smooth="yes"/>
      <point x="896" y="386"/>
      <point x="899" y="434"/>
      <point x="921" y="463" type="curve" smooth="yes"/>
      <point x="935" y="482"/>
      <point x="955" y="494"/>
      <point x="986" y="494" type="curve" smooth="yes"/>
      <point x="1017" y="494"/>
      <point x="1038" y="481"/>
      <point x="1051" y="461" type="curve" smooth="yes"/>
      <point x="1071" y="431"/>
      <point x="1076" y="386"/>
      <point x="1076" y="321" type="curve" smooth="yes"/>
      <point x="1076" y="0" type="line"/>
      <point x="1162" y="0" type="line"/>
      <point x="1162" y="319" type="line" smooth="yes"/>
      <point x="1162" y="391"/>
      <point x="1171" y="427"/>
      <point x="1198" y="458" type="curve" smooth="yes"/>
      <point x="1220" y="483"/>
      <point x="1252" y="494"/>
      <point x="1287" y="494" type="curve" smooth="yes"/>
      <point x="1376" y="494"/>
      <point x="1440" y="428"/>
      <point x="1440" y="247" type="curve" smooth="yes"/>
      <point x="1440" y="108"/>
      <point x="1407" y="-7"/>
      <point x="1356" y="-84" type="curve"/>
      <point x="635" y="-84" type="line" smooth="yes"/>
      <point x="566" y="-84"/>
      <point x="520" y="-115"/>
      <point x="520" y="-174" type="curve" smooth="yes"/>
      <point x="520" y="-289"/>
      <point x="710" y="-331"/>
      <point x="899" y="-331" type="curve" smooth="yes"/>
      <point x="919" y="-331" type="line" smooth="yes"/>
      <point x="1134" y="-331"/>
      <point x="1293" y="-277"/>
      <point x="1416" y="-156" type="curve"/>
      <point x="1771" y="-156" type="line"/>
      <point x="1771" y="554" type="line"/>
      <point x="1685" y="554" type="line"/>
      <point x="1685" y="-84" type="line"/>
      <point x="1457" y="-84" type="line"/>
      <point x="1500" y="-2"/>
      <point x="1529" y="110"/>
      <point x="1529" y="244" type="curve" smooth="yes"/>
      <point x="1529" y="449"/>
      <point x="1446" y="566"/>
      <point x="1294" y="566" type="curve" smooth="yes"/>
      <point x="1207" y="566"/>
      <point x="1150" y="527"/>
      <point x="1123" y="472" type="curve"/>
      <point x="1094" y="533"/>
      <point x="1047" y="566"/>
      <point x="979" y="566" type="curve" smooth="yes"/>
      <point x="929" y="566"/>
      <point x="891" y="552"/>
      <point x="863" y="524" type="curve" smooth="yes"/>
      <point x="822" y="483"/>
      <point x="810" y="438"/>
      <point x="810" y="341" type="curve" smooth="yes"/>
      <point x="810" y="72" type="line"/>
      <point x="603" y="72" type="line"/>
      <point x="630" y="131"/>
      <point x="651" y="194"/>
      <point x="651" y="280" type="curve" smooth="yes"/>
      <point x="651" y="437"/>
      <point x="567" y="566"/>
      <point x="364" y="566" type="curve" smooth="yes"/>
      <point x="199" y="566"/>
      <point x="57" y="457"/>
    </contour>
    <contour>
      <point x="137" y="212" type="curve"/>
      <point x="169" y="240"/>
      <point x="206" y="258"/>
      <point x="247" y="258" type="curve" smooth="yes"/>
      <point x="302" y="258"/>
      <point x="340" y="221"/>
      <point x="340" y="155" type="curve" smooth="yes"/>
      <point x="340" y="91"/>
      <point x="305" y="56"/>
      <point x="253" y="56" type="curve" smooth="yes"/>
      <point x="191" y="56"/>
      <point x="143" y="97"/>
    </contour>
    <contour>
      <point x="603" y="-177" type="curve" smooth="yes"/>
      <point x="603" y="-166"/>
      <point x="611" y="-156"/>
      <point x="635" y="-156" type="curve" smooth="yes"/>
      <point x="1305" y="-156" type="line"/>
      <point x="1201" y="-228"/>
      <point x="1076" y="-258"/>
      <point x="921" y="-258" type="curve" smooth="yes"/>
      <point x="910" y="-258" type="line" smooth="yes"/>
      <point x="705" y="-258"/>
      <point x="603" y="-219"/>
    </contour>
  </outline>
</glyph>
<glyph name="ThreeTwentieths" format="2">
  <advance width="1058"/>
  <unicode hex="11FCD"/>
  <guideline x="58" y="658" angle="90"/>
  <outline>
    <contour>
      <point x="88" y="0" type="line"/>
      <point x="174" y="0" type="line"/>
      <point x="174" y="482" type="line"/>
      <point x="348" y="482" type="line"/>
      <point x="348" y="0" type="line"/>
      <point x="434" y="0" type="line"/>
      <point x="434" y="240" type="line"/>
      <point x="455" y="267"/>
      <point x="491" y="289"/>
      <point x="530" y="289" type="curve" smooth="yes"/>
      <point x="583" y="289"/>
      <point x="602" y="260"/>
      <point x="608" y="207" type="curve" smooth="yes"/>
      <point x="616" y="131" type="line" smooth="yes"/>
      <point x="625" y="48"/>
      <point x="673" y="-12"/>
      <point x="780" y="-12" type="curve" smooth="yes"/>
      <point x="929" y="-12"/>
      <point x="995" y="119"/>
      <point x="995" y="376" type="curve" smooth="yes"/>
      <point x="995" y="727"/>
      <point x="792" y="843"/>
      <point x="500" y="843" type="curve" smooth="yes"/>
      <point x="408" y="843"/>
      <point x="326" y="831"/>
      <point x="253" y="812" type="curve"/>
      <point x="265" y="743" type="line"/>
      <point x="331" y="758"/>
      <point x="409" y="768"/>
      <point x="499" y="768" type="curve" smooth="yes"/>
      <point x="742" y="768"/>
      <point x="906" y="674"/>
      <point x="906" y="374" type="curve" smooth="yes"/>
      <point x="906" y="150"/>
      <point x="857" y="61"/>
      <point x="780" y="61" type="curve" smooth="yes"/>
      <point x="730" y="61"/>
      <point x="703" y="89"/>
      <point x="697" y="149" type="curve" smooth="yes"/>
      <point x="689" y="226" type="line" smooth="yes"/>
      <point x="681" y="306"/>
      <point x="644" y="362"/>
      <point x="552" y="362" type="curve" smooth="yes"/>
      <point x="504" y="362"/>
      <point x="462" y="343"/>
      <point x="434" y="316" type="curve"/>
      <point x="434" y="482" type="line"/>
      <point x="609" y="482" type="line"/>
      <point x="609" y="554" type="line"/>
      <point x="88" y="554" type="line"/>
    </contour>
  </outline>
</glyph>
<glyph name="ThreeSixteenths" format="2">
  <advance width="1528"/>
  <unicode hex="11FCE"/>
  <outline>
    <contour>
      <point x="88" y="0" type="line"/>
      <point x="174" y="0" type="line"/>
      <point x="174" y="482" type="line"/>
      <point x="348" y="482" type="line"/>
      <point x="348" y="0" type="line"/>
      <point x="434" y="0" type="line"/>
      <point x="434" y="482" type="line"/>
      <point x="609" y="482" type="line"/>
      <point x="609" y="554" type="line"/>
      <point x="88" y="554" type="line"/>
    </contour>
    <contour>
      <point x="425" y="227" type="line"/>
      <point x="451" y="254"/>
      <point x="496" y="277"/>
      <point x="546" y="277" type="curve" smooth="yes"/>
      <point x="616" y="277"/>
      <point x="649" y="247"/>
      <point x="649" y="191" type="curve" smooth="yes"/>
      <point x="649" y="150"/>
      <point x="625" y="108"/>
      <point x="605" y="75" type="curve" smooth="yes"/>
      <point x="548" y="-28"/>
      <point x="527" y="-83"/>
      <point x="527" y="-161" type="curve" smooth="yes"/>
      <point x="527" y="-305"/>
      <point x="635" y="-389"/>
      <point x="781" y="-389" type="curve" smooth="yes"/>
      <point x="941" y="-389"/>
      <point x="1024" y="-298"/>
      <point x="1024" y="-166" type="curve"/>
      <point x="1024" y="-115" type="line"/>
      <point x="1024" y="-85"/>
      <point x="1037" y="-66"/>
      <point x="1063" y="-66" type="curve" smooth="yes"/>
      <point x="1088" y="-66"/>
      <point x="1098" y="-81"/>
      <point x="1117" y="-102" type="curve" smooth="yes"/>
      <point x="1171" y="-162"/>
      <point x="1220" y="-203"/>
      <point x="1319" y="-203" type="curve" smooth="yes"/>
      <point x="1437" y="-203"/>
      <point x="1508" y="-129"/>
      <point x="1508" y="-17" type="curve" smooth="yes"/>
      <point x="1508" y="98"/>
      <point x="1417" y="168"/>
      <point x="1322" y="178" type="curve"/>
      <point x="1306" y="104" type="line"/>
      <point x="1374" y="98"/>
      <point x="1422" y="48"/>
      <point x="1422" y="-16" type="curve" smooth="yes"/>
      <point x="1422" y="-86"/>
      <point x="1383" y="-129"/>
      <point x="1316" y="-129" type="curve" smooth="yes"/>
      <point x="1264" y="-129"/>
      <point x="1220" y="-104"/>
      <point x="1183" y="-61" type="curve" smooth="yes"/>
      <point x="1144" y="-14"/>
      <point x="1112" y="6"/>
      <point x="1060" y="6" type="curve" smooth="yes"/>
      <point x="991" y="6"/>
      <point x="938" y="-37"/>
      <point x="938" y="-128" type="curve"/>
      <point x="938" y="-160" type="line"/>
      <point x="938" y="-253"/>
      <point x="879" y="-313"/>
      <point x="781" y="-313" type="curve" smooth="yes"/>
      <point x="686" y="-313"/>
      <point x="613" y="-256"/>
      <point x="613" y="-158" type="curve" smooth="yes"/>
      <point x="613" y="-99"/>
      <point x="627" y="-58"/>
      <point x="672" y="30" type="curve" smooth="yes"/>
      <point x="706" y="86"/>
      <point x="734" y="139"/>
      <point x="734" y="194" type="curve" smooth="yes"/>
      <point x="734" y="286"/>
      <point x="679" y="350"/>
      <point x="566" y="350" type="curve" smooth="yes"/>
      <point x="507" y="350"/>
      <point x="458" y="330"/>
      <point x="425" y="303" type="curve"/>
    </contour>
  </outline>
</glyph>
<glyph name="OneFifth" format="2">
  <advance width="1078"/>
  <unicode hex="11FCF"/>
  <outline>
    <contour>
      <point x="49" y="152" type="curve" smooth="yes"/>
      <point x="49" y="47"/>
      <point x="140" y="-12"/>
      <point x="261" y="-12" type="curve" smooth="yes"/>
      <point x="345" y="-12"/>
      <point x="411" y="6"/>
      <point x="452" y="57" type="curve" smooth="yes"/>
      <point x="480" y="91"/>
      <point x="496" y="136"/>
      <point x="496" y="226" type="curve" smooth="yes"/>
      <point x="496" y="258" type="line"/>
      <point x="584" y="258"/>
      <point x="613" y="230"/>
      <point x="638" y="165" type="curve" smooth="yes"/>
      <point x="654" y="123" type="line" smooth="yes"/>
      <point x="686" y="40"/>
      <point x="737" y="-12"/>
      <point x="829" y="-12" type="curve" smooth="yes"/>
      <point x="956" y="-12"/>
      <point x="1015" y="75"/>
      <point x="1015" y="239" type="curve" smooth="yes"/>
      <point x="1015" y="354"/>
      <point x="976" y="468"/>
      <point x="895" y="566" type="curve"/>
      <point x="823" y="515" type="line"/>
      <point x="891" y="433"/>
      <point x="926" y="335"/>
      <point x="926" y="237" type="curve" smooth="yes"/>
      <point x="926" y="113"/>
      <point x="885" y="61"/>
      <point x="826" y="61" type="curve" smooth="yes"/>
      <point x="775" y="61"/>
      <point x="748" y="96"/>
      <point x="728" y="152" type="curve" smooth="yes"/>
      <point x="716" y="185" type="line" smooth="yes"/>
      <point x="679" y="287"/>
      <point x="636" y="327"/>
      <point x="496" y="328" type="curve"/>
      <point x="496" y="482" type="line"/>
      <point x="683" y="482" type="line"/>
      <point x="683" y="554" type="line"/>
      <point x="160" y="554" type="line"/>
      <point x="160" y="303" type="line"/>
      <point x="82" y="274"/>
      <point x="49" y="221"/>
    </contour>
    <contour>
      <point x="135" y="153" type="curve" smooth="yes"/>
      <point x="135" y="191"/>
      <point x="149" y="215"/>
      <point x="178" y="232" type="curve" smooth="yes"/>
      <point x="211" y="251"/>
      <point x="257" y="258"/>
      <point x="325" y="258" type="curve" smooth="yes"/>
      <point x="411" y="258" type="line"/>
      <point x="411" y="213" type="line" smooth="yes"/>
      <point x="411" y="94"/>
      <point x="356" y="60"/>
      <point x="269" y="60" type="curve" smooth="yes"/>
      <point x="192" y="60"/>
      <point x="135" y="91"/>
    </contour>
    <contour>
      <point x="239" y="322" type="curve"/>
      <point x="239" y="482" type="line"/>
      <point x="411" y="482" type="line"/>
      <point x="411" y="328" type="line"/>
      <point x="332" y="328" type="line" smooth="yes"/>
      <point x="298" y="328"/>
      <point x="267" y="326"/>
    </contour>
  </outline>
</glyph>
<glyph name="OneQuarter" format="2">
  <advance width="990"/>
  <unicode hex="11FD0"/>
  <outline>
    <contour>
      <point x="30" y="608" type="curve" smooth="yes"/>
      <point x="30" y="508"/>
      <point x="96" y="461"/>
      <point x="179" y="461" type="curve" smooth="yes"/>
      <point x="268" y="461"/>
      <point x="325" y="513"/>
      <point x="325" y="595" type="curve" smooth="yes"/>
      <point x="325" y="623"/>
      <point x="320" y="659"/>
      <point x="305" y="694" type="curve"/>
      <point x="385" y="684"/>
      <point x="435" y="633"/>
      <point x="435" y="547" type="curve" smooth="yes"/>
      <point x="435" y="492"/>
      <point x="412" y="451"/>
      <point x="389" y="407" type="curve" smooth="yes"/>
      <point x="352" y="337" type="line" smooth="yes"/>
      <point x="326" y="289"/>
      <point x="304" y="246"/>
      <point x="304" y="189" type="curve" smooth="yes"/>
      <point x="304" y="66"/>
      <point x="389" y="0"/>
      <point x="536" y="0" type="curve" smooth="yes"/>
      <point x="902" y="0" type="line"/>
      <point x="902" y="554" type="line"/>
      <point x="816" y="554" type="line"/>
      <point x="816" y="72" type="line"/>
      <point x="546" y="72" type="line" smooth="yes"/>
      <point x="436" y="72"/>
      <point x="391" y="118"/>
      <point x="391" y="195" type="curve" smooth="yes"/>
      <point x="391" y="240"/>
      <point x="407" y="271"/>
      <point x="425" y="303" type="curve" smooth="yes"/>
      <point x="464" y="372" type="line" smooth="yes"/>
      <point x="498" y="432"/>
      <point x="518" y="489"/>
      <point x="518" y="555" type="curve" smooth="yes"/>
      <point x="518" y="628"/>
      <point x="486" y="690"/>
      <point x="419" y="727" type="curve" smooth="yes"/>
      <point x="379" y="749"/>
      <point x="323" y="763"/>
      <point x="252" y="763" type="curve" smooth="yes"/>
      <point x="105" y="763"/>
      <point x="30" y="696"/>
    </contour>
    <contour>
      <point x="102" y="603" type="curve" smooth="yes"/>
      <point x="102" y="664"/>
      <point x="157" y="695"/>
      <point x="235" y="697" type="curve"/>
      <point x="249" y="668"/>
      <point x="255" y="638"/>
      <point x="255" y="609" type="curve" smooth="yes"/>
      <point x="255" y="550"/>
      <point x="223" y="527"/>
      <point x="179" y="527" type="curve" smooth="yes"/>
      <point x="130" y="527"/>
      <point x="102" y="558"/>
    </contour>
  </outline>
</glyph>
<glyph name="OneHalf_1" format="2">
  <advance width="607"/>
  <unicode hex="11FD1"/>
  <outline>
    <contour>
      <point x="40" y="-94" type="curve" smooth="yes"/>
      <point x="40" y="-131"/>
      <point x="46" y="-170"/>
      <point x="55" y="-194" type="curve"/>
      <point x="140" y="-188" type="line"/>
      <point x="132" y="-159"/>
      <point x="127" y="-128"/>
      <point x="127" y="-95" type="curve" smooth="yes"/>
      <point x="127" y="-7"/>
      <point x="180" y="29"/>
      <point x="265" y="65" type="curve" smooth="yes"/>
      <point x="353" y="102" type="line" smooth="yes"/>
      <point x="487" y="158"/>
      <point x="567" y="217"/>
      <point x="567" y="357" type="curve" smooth="yes"/>
      <point x="567" y="436"/>
      <point x="534" y="502"/>
      <point x="458" y="540" type="curve" smooth="yes"/>
      <point x="417" y="560"/>
      <point x="363" y="573"/>
      <point x="291" y="573" type="curve" smooth="yes"/>
      <point x="144" y="573"/>
      <point x="69" y="506"/>
      <point x="69" y="418" type="curve" smooth="yes"/>
      <point x="69" y="318"/>
      <point x="135" y="271"/>
      <point x="218" y="271" type="curve" smooth="yes"/>
      <point x="307" y="271"/>
      <point x="364" y="323"/>
      <point x="364" y="405" type="curve" smooth="yes"/>
      <point x="364" y="433"/>
      <point x="359" y="469"/>
      <point x="344" y="504" type="curve"/>
      <point x="430" y="494"/>
      <point x="484" y="441"/>
      <point x="484" y="358" type="curve" smooth="yes"/>
      <point x="484" y="248"/>
      <point x="413" y="203"/>
      <point x="326" y="168" type="curve" smooth="yes"/>
      <point x="227" y="128" type="line" smooth="yes"/>
      <point x="108" y="80"/>
      <point x="40" y="26"/>
    </contour>
    <contour>
      <point x="141" y="413" type="curve" smooth="yes"/>
      <point x="141" y="474"/>
      <point x="196" y="505"/>
      <point x="274" y="507" type="curve"/>
      <point x="288" y="478"/>
      <point x="294" y="448"/>
      <point x="294" y="419" type="curve" smooth="yes"/>
      <point x="294" y="360"/>
      <point x="262" y="337"/>
      <point x="218" y="337" type="curve" smooth="yes"/>
      <point x="169" y="337"/>
      <point x="141" y="368"/>
    </contour>
  </outline>
</glyph>
<glyph name="OneHalf_2" format="2">
  <advance width="1105"/>
  <unicode hex="11FD2"/>
  <outline>
    <contour>
      <point x="896" y="706" type="curve"/>
      <point x="940" y="769" type="line"/>
      <point x="861" y="824"/>
      <point x="753" y="863"/>
      <point x="611" y="863" type="curve" smooth="yes"/>
      <point x="601" y="863" type="line" smooth="yes"/>
      <point x="287" y="863"/>
      <point x="60" y="647"/>
      <point x="60" y="326" type="curve"/>
      <point x="60" y="-4"/>
      <point x="300" y="-221"/>
      <point x="629" y="-221" type="curve" smooth="yes"/>
      <point x="640" y="-221" type="line" smooth="yes"/>
      <point x="903" y="-221"/>
      <point x="1085" y="-76"/>
      <point x="1085" y="140" type="curve" smooth="yes"/>
      <point x="1085" y="293"/>
      <point x="984" y="374"/>
      <point x="870" y="374" type="curve" smooth="yes"/>
      <point x="798" y="374"/>
      <point x="753" y="348"/>
      <point x="721" y="308" type="curve"/>
      <point x="734" y="299" type="line"/>
      <point x="753" y="330"/>
      <point x="766" y="364"/>
      <point x="766" y="400" type="curve" smooth="yes"/>
      <point x="766" y="516"/>
      <point x="688" y="596"/>
      <point x="563" y="596" type="curve" smooth="yes"/>
      <point x="427" y="596"/>
      <point x="345" y="516"/>
      <point x="345" y="386" type="curve" smooth="yes"/>
      <point x="345" y="352"/>
      <point x="352" y="318"/>
      <point x="361" y="288" type="curve"/>
      <point x="442" y="303" type="line"/>
      <point x="435" y="330"/>
      <point x="431" y="356"/>
      <point x="431" y="382" type="curve" smooth="yes"/>
      <point x="431" y="471"/>
      <point x="483" y="522"/>
      <point x="562" y="522" type="curve" smooth="yes"/>
      <point x="638" y="522"/>
      <point x="688" y="471"/>
      <point x="688" y="394" type="curve" smooth="yes"/>
      <point x="688" y="350"/>
      <point x="672" y="310"/>
      <point x="646" y="271" type="curve"/>
      <point x="718" y="224" type="line"/>
      <point x="750" y="269"/>
      <point x="792" y="298"/>
      <point x="859" y="298" type="curve" smooth="yes"/>
      <point x="937" y="298"/>
      <point x="997" y="233"/>
      <point x="997" y="138" type="curve" smooth="yes"/>
      <point x="997" y="-24"/>
      <point x="852" y="-143"/>
      <point x="635" y="-143" type="curve" smooth="yes"/>
      <point x="356" y="-143"/>
      <point x="150" y="44"/>
      <point x="150" y="326" type="curve" smooth="yes"/>
      <point x="150" y="620"/>
      <point x="368" y="785"/>
      <point x="605" y="785" type="curve" smooth="yes"/>
      <point x="733" y="785"/>
      <point x="839" y="742"/>
    </contour>
  </outline>
</glyph>
<glyph name="ThreeQuarters" format="2">
  <advance width="1300"/>
  <unicode hex="11FD3"/>
  <outline>
    <contour>
      <point x="57" y="243" type="curve" smooth="yes"/>
      <point x="57" y="63"/>
      <point x="142" y="-12"/>
      <point x="249" y="-12" type="curve" smooth="yes"/>
      <point x="356" y="-12"/>
      <point x="422" y="54"/>
      <point x="422" y="165" type="curve" smooth="yes"/>
      <point x="422" y="265"/>
      <point x="357" y="328"/>
      <point x="261" y="328" type="curve" smooth="yes"/>
      <point x="218" y="328"/>
      <point x="175" y="313"/>
      <point x="140" y="290" type="curve"/>
      <point x="158" y="410"/>
      <point x="242" y="492"/>
      <point x="380" y="492" type="curve" smooth="yes"/>
      <point x="509" y="492"/>
      <point x="591" y="424"/>
      <point x="620" y="297" type="curve"/>
      <point x="553" y="268"/>
      <point x="524" y="217"/>
      <point x="524" y="152" type="curve" smooth="yes"/>
      <point x="524" y="47"/>
      <point x="615" y="-12"/>
      <point x="736" y="-12" type="curve" smooth="yes"/>
      <point x="820" y="-12"/>
      <point x="885" y="6"/>
      <point x="927" y="57" type="curve" smooth="yes"/>
      <point x="955" y="91"/>
      <point x="971" y="136"/>
      <point x="971" y="226" type="curve" smooth="yes"/>
      <point x="971" y="257" type="line"/>
      <point x="1070" y="253"/>
      <point x="1166" y="223"/>
      <point x="1166" y="105" type="curve" smooth="yes"/>
      <point x="1166" y="55"/>
      <point x="1152" y="16"/>
      <point x="1125" y="-13" type="curve" smooth="yes"/>
      <point x="1079" y="-63"/>
      <point x="1007" y="-84"/>
      <point x="829" y="-84" type="curve" smooth="yes"/>
      <point x="720" y="-84" type="line" smooth="yes"/>
      <point x="653" y="-84"/>
      <point x="614" y="-94"/>
      <point x="579" y="-119" type="curve" smooth="yes"/>
      <point x="545" y="-144"/>
      <point x="522" y="-184"/>
      <point x="522" y="-243" type="curve" smooth="yes"/>
      <point x="522" y="-266"/>
      <point x="525" y="-297"/>
      <point x="529" y="-321" type="curve"/>
      <point x="611" y="-317" type="line"/>
      <point x="609" y="-301"/>
      <point x="608" y="-283"/>
      <point x="608" y="-263" type="curve" smooth="yes"/>
      <point x="608" y="-219"/>
      <point x="620" y="-194"/>
      <point x="642" y="-179" type="curve" smooth="yes"/>
      <point x="664" y="-164"/>
      <point x="691" y="-156"/>
      <point x="747" y="-156" type="curve" smooth="yes"/>
      <point x="860" y="-156" type="line" smooth="yes"/>
      <point x="1004" y="-156"/>
      <point x="1090" y="-141"/>
      <point x="1156" y="-94" type="curve" smooth="yes"/>
      <point x="1218" y="-50"/>
      <point x="1252" y="9"/>
      <point x="1252" y="98" type="curve" smooth="yes"/>
      <point x="1252" y="265"/>
      <point x="1135" y="324"/>
      <point x="971" y="328" type="curve"/>
      <point x="971" y="482" type="line"/>
      <point x="1158" y="482" type="line"/>
      <point x="1158" y="554" type="line"/>
      <point x="647" y="554" type="line"/>
      <point x="647" y="409" type="line"/>
      <point x="611" y="495"/>
      <point x="521" y="566"/>
      <point x="378" y="566" type="curve" smooth="yes"/>
      <point x="183" y="566"/>
      <point x="57" y="437"/>
    </contour>
    <contour>
      <point x="137" y="212" type="curve"/>
      <point x="169" y="240"/>
      <point x="206" y="258"/>
      <point x="247" y="258" type="curve" smooth="yes"/>
      <point x="302" y="258"/>
      <point x="340" y="221"/>
      <point x="340" y="155" type="curve" smooth="yes"/>
      <point x="340" y="91"/>
      <point x="305" y="56"/>
      <point x="253" y="56" type="curve" smooth="yes"/>
      <point x="191" y="56"/>
      <point x="143" y="97"/>
    </contour>
    <contour>
      <point x="610" y="153" type="curve" smooth="yes"/>
      <point x="610" y="191"/>
      <point x="624" y="215"/>
      <point x="653" y="232" type="curve" smooth="yes"/>
      <point x="686" y="251"/>
      <point x="732" y="258"/>
      <point x="800" y="258" type="curve" smooth="yes"/>
      <point x="886" y="258" type="line"/>
      <point x="886" y="213" type="line" smooth="yes"/>
      <point x="886" y="94"/>
      <point x="831" y="60"/>
      <point x="744" y="60" type="curve" smooth="yes"/>
      <point x="667" y="60"/>
      <point x="610" y="91"/>
    </contour>
    <contour>
      <point x="714" y="322" type="curve"/>
      <point x="714" y="482" type="line"/>
      <point x="886" y="482" type="line"/>
      <point x="886" y="328" type="line"/>
      <point x="807" y="328" type="line" smooth="yes"/>
      <point x="773" y="328"/>
      <point x="742" y="326"/>
    </contour>
  </outline>
</glyph>
<glyph name="DownscalingFactorKiizh" format="2">
  <advance width="1031"/>
  <unicode hex="11FD4"/>
  <guideline x="651" y="635" angle="90"/>
  <outline>
    <contour>
      <point x="49" y="152" type="curve" smooth="yes"/>
      <point x="49" y="47"/>
      <point x="140" y="-12"/>
      <point x="261" y="-12" type="curve" smooth="yes"/>
      <point x="345" y="-12"/>
      <point x="411" y="6"/>
      <point x="452" y="57" type="curve" smooth="yes"/>
      <point x="480" y="91"/>
      <point x="496" y="136"/>
      <point x="496" y="226" type="curve" smooth="yes"/>
      <point x="496" y="258" type="line"/>
      <point x="519" y="258" type="line" smooth="yes"/>
      <point x="602" y="258"/>
      <point x="690" y="247"/>
      <point x="690" y="156" type="curve" smooth="yes"/>
      <point x="690" y="92"/>
      <point x="657" y="62"/>
      <point x="594" y="62" type="curve" smooth="yes"/>
      <point x="568" y="62"/>
      <point x="541" y="66"/>
      <point x="521" y="72" type="curve"/>
      <point x="502" y="5" type="line"/>
      <point x="533" y="-4"/>
      <point x="571" y="-8"/>
      <point x="602" y="-8" type="curve" smooth="yes"/>
      <point x="713" y="-8"/>
      <point x="776" y="50"/>
      <point x="776" y="152" type="curve" smooth="yes"/>
      <point x="776" y="208"/>
      <point x="755" y="252"/>
      <point x="720" y="279" type="curve" smooth="yes"/>
      <point x="674" y="314"/>
      <point x="616" y="328"/>
      <point x="512" y="328" type="curve" smooth="yes"/>
      <point x="496" y="328" type="line"/>
      <point x="496" y="482" type="line"/>
      <point x="683" y="482" type="line"/>
      <point x="683" y="554" type="line"/>
      <point x="484" y="554" type="line"/>
      <point x="465" y="588"/>
      <point x="452" y="629"/>
      <point x="452" y="671" type="curve" smooth="yes"/>
      <point x="452" y="758"/>
      <point x="506" y="807"/>
      <point x="582" y="807" type="curve" smooth="yes"/>
      <point x="588" y="807" type="line"/>
      <point x="557" y="786"/>
      <point x="539" y="755"/>
      <point x="539" y="713" type="curve" smooth="yes"/>
      <point x="539" y="653"/>
      <point x="586" y="612"/>
      <point x="651" y="612" type="curve" smooth="yes"/>
      <point x="719" y="612"/>
      <point x="759" y="655"/>
      <point x="759" y="716" type="curve" smooth="yes"/>
      <point x="759" y="762"/>
      <point x="738" y="801"/>
      <point x="700" y="821" type="curve"/>
      <point x="710" y="824"/>
      <point x="721" y="825"/>
      <point x="735" y="825" type="curve" smooth="yes"/>
      <point x="802" y="825"/>
      <point x="840" y="779"/>
      <point x="840" y="709" type="curve" smooth="yes"/>
      <point x="840" y="659"/>
      <point x="828" y="628"/>
      <point x="808" y="593" type="curve"/>
      <point x="812" y="547" type="line"/>
      <point x="1031" y="547" type="line"/>
      <point x="1031" y="605" type="line"/>
      <point x="888" y="605" type="line"/>
      <point x="907" y="640"/>
      <point x="915" y="683"/>
      <point x="915" y="720" type="curve" smooth="yes"/>
      <point x="915" y="815"/>
      <point x="854" y="881"/>
      <point x="746" y="881" type="curve" smooth="yes"/>
      <point x="707" y="881"/>
      <point x="673" y="869"/>
      <point x="645" y="852" type="curve"/>
      <point x="625" y="860"/>
      <point x="600" y="864"/>
      <point x="575" y="864" type="curve" smooth="yes"/>
      <point x="437" y="864"/>
      <point x="375" y="776"/>
      <point x="375" y="675" type="curve" smooth="yes"/>
      <point x="375" y="632"/>
      <point x="385" y="590"/>
      <point x="402" y="554" type="curve"/>
      <point x="160" y="554" type="line"/>
      <point x="160" y="303" type="line"/>
      <point x="82" y="275"/>
      <point x="49" y="222"/>
    </contour>
    <contour>
      <point x="135" y="153" type="curve" smooth="yes"/>
      <point x="135" y="191"/>
      <point x="149" y="215"/>
      <point x="178" y="232" type="curve" smooth="yes"/>
      <point x="211" y="251"/>
      <point x="257" y="258"/>
      <point x="325" y="258" type="curve" smooth="yes"/>
      <point x="411" y="258" type="line"/>
      <point x="411" y="213" type="line" smooth="yes"/>
      <point x="411" y="93"/>
      <point x="356" y="60"/>
      <point x="269" y="60" type="curve" smooth="yes"/>
      <point x="192" y="60"/>
      <point x="135" y="91"/>
    </contour>
    <contour>
      <point x="239" y="322" type="curve"/>
      <point x="239" y="482" type="line"/>
      <point x="411" y="482" type="line"/>
      <point x="411" y="328" type="line"/>
      <point x="332" y="328" type="line" smooth="yes"/>
      <point x="298" y="328"/>
      <point x="267" y="326"/>
    </contour>
    <contour>
      <point x="602" y="723" type="curve" smooth="yes"/>
      <point x="602" y="754"/>
      <point x="619" y="781"/>
      <point x="647" y="797" type="curve"/>
      <point x="677" y="784"/>
      <point x="697" y="756"/>
      <point x="697" y="723" type="curve" smooth="yes"/>
      <point x="697" y="690"/>
      <point x="680" y="668"/>
      <point x="651" y="668" type="curve" smooth="yes"/>
      <point x="623" y="668"/>
      <point x="602" y="690"/>
    </contour>
  </outline>
</glyph>
<glyph name="Nel" format="2">
  <advance width="1358"/>
  <unicode hex="11FD5"/>
  <outline>
    <contour>
      <point x="50" y="283" type="curve" smooth="yes"/>
      <point x="50" y="132"/>
      <point x="128" y="68"/>
      <point x="227" y="68" type="curve" smooth="yes"/>
      <point x="331" y="68"/>
      <point x="395" y="130"/>
      <point x="395" y="233" type="curve" smooth="yes"/>
      <point x="395" y="332"/>
      <point x="341" y="394"/>
      <point x="252" y="394" type="curve" smooth="yes"/>
      <point x="207" y="394"/>
      <point x="170" y="379"/>
      <point x="139" y="353" type="curve"/>
      <point x="164" y="437"/>
      <point x="232" y="492"/>
      <point x="339" y="492" type="curve" smooth="yes"/>
      <point x="461" y="492"/>
      <point x="545" y="414"/>
      <point x="545" y="257" type="curve" smooth="yes"/>
      <point x="545" y="223" type="line"/>
      <point x="619" y="223" type="line"/>
      <point x="619" y="281" type="line" smooth="yes"/>
      <point x="619" y="416"/>
      <point x="684" y="491"/>
      <point x="786" y="491" type="curve" smooth="yes"/>
      <point x="880" y="491"/>
      <point x="936" y="428"/>
      <point x="936" y="323" type="curve" smooth="yes"/>
      <point x="936" y="191"/>
      <point x="864" y="99"/>
      <point x="704" y="63" type="curve"/>
      <point x="708" y="0" type="line"/>
      <point x="1341" y="0" type="line"/>
      <point x="1341" y="74" type="line"/>
      <point x="883" y="74" type="line"/>
      <point x="974" y="107"/>
      <point x="1024" y="210"/>
      <point x="1024" y="326" type="curve" smooth="yes"/>
      <point x="1024" y="466"/>
      <point x="942" y="566"/>
      <point x="792" y="566" type="curve" smooth="yes"/>
      <point x="690" y="566"/>
      <point x="610" y="517"/>
      <point x="578" y="421" type="curve"/>
      <point x="541" y="510"/>
      <point x="461" y="566"/>
      <point x="337" y="566" type="curve" smooth="yes"/>
      <point x="162" y="566"/>
      <point x="50" y="453"/>
    </contour>
    <contour>
      <point x="129" y="274" type="curve"/>
      <point x="157" y="305"/>
      <point x="192" y="324"/>
      <point x="226" y="324" type="curve" smooth="yes"/>
      <point x="282" y="324"/>
      <point x="313" y="290"/>
      <point x="313" y="230" type="curve" smooth="yes"/>
      <point x="313" y="169"/>
      <point x="280" y="136"/>
      <point x="231" y="136" type="curve" smooth="yes"/>
      <point x="174" y="136"/>
      <point x="130" y="173"/>
    </contour>
  </outline>
</glyph>
<glyph name="Cevitu" format="2">
  <advance width="1481"/>
  <unicode hex="11FD6"/>
  <guideline x="0" y="179" angle="90"/>
  <outline>
    <contour>
      <point x="37" y="-175" type="curve" smooth="yes"/>
      <point x="37" y="-285"/>
      <point x="176" y="-341"/>
      <point x="381" y="-341" type="curve" smooth="yes"/>
      <point x="387" y="-341" type="line" smooth="yes"/>
      <point x="605" y="-341"/>
      <point x="775" y="-283"/>
      <point x="851" y="-154" type="curve"/>
      <point x="853" y="-146" type="line"/>
      <point x="994" y="-146" type="line"/>
      <point x="994" y="-152" type="line" smooth="yes"/>
      <point x="994" y="-248"/>
      <point x="1044" y="-301"/>
      <point x="1123" y="-301" type="curve" smooth="yes"/>
      <point x="1189" y="-301"/>
      <point x="1235" y="-262"/>
      <point x="1235" y="-191" type="curve" smooth="yes"/>
      <point x="1235" y="-119"/>
      <point x="1197" y="-84"/>
      <point x="1113" y="-84" type="curve" smooth="yes"/>
      <point x="1071" y="-84" type="line"/>
      <point x="1094" y="-31"/>
      <point x="1146" y="-12"/>
      <point x="1203" y="-12" type="curve" smooth="yes"/>
      <point x="1284" y="-12"/>
      <point x="1331" y="-61"/>
      <point x="1331" y="-136" type="curve" smooth="yes"/>
      <point x="1331" y="-186"/>
      <point x="1318" y="-217"/>
      <point x="1298" y="-252" type="curve"/>
      <point x="1302" y="-298" type="line"/>
      <point x="1521" y="-298" type="line"/>
      <point x="1521" y="-240" type="line"/>
      <point x="1378" y="-240" type="line"/>
      <point x="1399" y="-206"/>
      <point x="1406" y="-161"/>
      <point x="1406" y="-125" type="curve" smooth="yes"/>
      <point x="1406" y="-22"/>
      <point x="1332" y="50"/>
      <point x="1201" y="50" type="curve" smooth="yes"/>
      <point x="1118" y="50"/>
      <point x="1032" y="7"/>
      <point x="1003" y="-84" type="curve"/>
      <point x="871" y="-84" type="line"/>
      <point x="880" y="-38"/>
      <point x="883" y="29"/>
      <point x="883" y="80" type="curve" smooth="yes"/>
      <point x="883" y="482" type="line"/>
      <point x="1033" y="482" type="line"/>
      <point x="1033" y="554" type="line"/>
      <point x="549" y="554" type="line"/>
      <point x="549" y="502" type="line"/>
      <point x="500" y="540"/>
      <point x="443" y="566"/>
      <point x="358" y="566" type="curve" smooth="yes"/>
      <point x="202" y="566"/>
      <point x="57" y="461"/>
      <point x="57" y="243" type="curve" smooth="yes"/>
      <point x="57" y="63"/>
      <point x="142" y="-12"/>
      <point x="249" y="-12" type="curve" smooth="yes"/>
      <point x="356" y="-12"/>
      <point x="422" y="54"/>
      <point x="422" y="165" type="curve" smooth="yes"/>
      <point x="422" y="265"/>
      <point x="357" y="328"/>
      <point x="261" y="328" type="curve" smooth="yes"/>
      <point x="217" y="328"/>
      <point x="175" y="313"/>
      <point x="140" y="290" type="curve"/>
      <point x="158" y="409"/>
      <point x="238" y="492"/>
      <point x="355" y="492" type="curve" smooth="yes"/>
      <point x="436" y="492"/>
      <point x="491" y="462"/>
      <point x="537" y="407" type="curve"/>
      <point x="537" y="0" type="line"/>
      <point x="623" y="0" type="line"/>
      <point x="623" y="482" type="line"/>
      <point x="797" y="482" type="line"/>
      <point x="797" y="80" type="line" smooth="yes"/>
      <point x="797" y="19"/>
      <point x="795" y="-45"/>
      <point x="785" y="-84" type="curve"/>
      <point x="143" y="-84" type="line" smooth="yes"/>
      <point x="74" y="-84"/>
      <point x="37" y="-114"/>
    </contour>
    <contour>
      <point x="120" y="-180" type="curve" smooth="yes"/>
      <point x="120" y="-158"/>
      <point x="139" y="-156"/>
      <point x="155" y="-156" type="curve" smooth="yes"/>
      <point x="753" y="-156" type="line"/>
      <point x="682" y="-238"/>
      <point x="559" y="-268"/>
      <point x="389" y="-268" type="curve" smooth="yes"/>
      <point x="379" y="-268" type="line" smooth="yes"/>
      <point x="210" y="-268"/>
      <point x="120" y="-230"/>
    </contour>
    <contour>
      <point x="137" y="212" type="curve"/>
      <point x="169" y="240"/>
      <point x="206" y="258"/>
      <point x="247" y="258" type="curve" smooth="yes"/>
      <point x="302" y="258"/>
      <point x="340" y="221"/>
      <point x="340" y="155" type="curve" smooth="yes"/>
      <point x="340" y="91"/>
      <point x="307" y="56"/>
      <point x="253" y="56" type="curve" smooth="yes"/>
      <point x="191" y="56"/>
      <point x="143" y="97"/>
    </contour>
    <contour>
      <point x="1058" y="-154" type="curve" smooth="yes"/>
      <point x="1058" y="-143" type="line"/>
      <point x="1107" y="-143" type="line" smooth="yes"/>
      <point x="1152" y="-143"/>
      <point x="1172" y="-160"/>
      <point x="1172" y="-194" type="curve" smooth="yes"/>
      <point x="1172" y="-228"/>
      <point x="1149" y="-242"/>
      <point x="1121" y="-242" type="curve" smooth="yes"/>
      <point x="1077" y="-242"/>
      <point x="1058" y="-212"/>
    </contour>
  </outline>
</glyph>
<glyph name="Aazhaakku" format="2">
  <advance width="1248"/>
  <unicode hex="11FD7"/>
  <guideline x="0" y="-145" angle="270"/>
  <outline>
    <contour>
      <point x="37" y="-175" type="curve" smooth="yes"/>
      <point x="37" y="-285"/>
      <point x="176" y="-341"/>
      <point x="381" y="-341" type="curve" smooth="yes"/>
      <point x="387" y="-341" type="line" smooth="yes"/>
      <point x="604" y="-341"/>
      <point x="773" y="-284"/>
      <point x="850" y="-156" type="curve"/>
      <point x="1160" y="-156" type="line"/>
      <point x="1160" y="554" type="line"/>
      <point x="1074" y="554" type="line"/>
      <point x="1074" y="-84" type="line"/>
      <point x="871" y="-84" type="line"/>
      <point x="880" y="-38"/>
      <point x="883" y="29"/>
      <point x="883" y="80" type="curve" smooth="yes"/>
      <point x="883" y="482" type="line"/>
      <point x="1033" y="482" type="line"/>
      <point x="1033" y="554" type="line"/>
      <point x="549" y="554" type="line"/>
      <point x="549" y="502" type="line"/>
      <point x="500" y="540"/>
      <point x="443" y="566"/>
      <point x="358" y="566" type="curve" smooth="yes"/>
      <point x="202" y="566"/>
      <point x="57" y="461"/>
      <point x="57" y="243" type="curve" smooth="yes"/>
      <point x="57" y="63"/>
      <point x="142" y="-12"/>
      <point x="249" y="-12" type="curve" smooth="yes"/>
      <point x="356" y="-12"/>
      <point x="422" y="54"/>
      <point x="422" y="165" type="curve" smooth="yes"/>
      <point x="422" y="265"/>
      <point x="357" y="328"/>
      <point x="261" y="328" type="curve" smooth="yes"/>
      <point x="217" y="328"/>
      <point x="175" y="313"/>
      <point x="140" y="290" type="curve"/>
      <point x="158" y="409"/>
      <point x="238" y="492"/>
      <point x="355" y="492" type="curve" smooth="yes"/>
      <point x="436" y="492"/>
      <point x="491" y="462"/>
      <point x="537" y="407" type="curve"/>
      <point x="537" y="0" type="line"/>
      <point x="623" y="0" type="line"/>
      <point x="623" y="482" type="line"/>
      <point x="797" y="482" type="line"/>
      <point x="797" y="70" type="line" smooth="yes"/>
      <point x="797" y="9"/>
      <point x="795" y="-45"/>
      <point x="785" y="-84" type="curve"/>
      <point x="143" y="-84" type="line" smooth="yes"/>
      <point x="74" y="-84"/>
      <point x="37" y="-114"/>
    </contour>
    <contour>
      <point x="120" y="-180" type="curve" smooth="yes"/>
      <point x="120" y="-158"/>
      <point x="139" y="-156"/>
      <point x="155" y="-156" type="curve" smooth="yes"/>
      <point x="753" y="-156" type="line"/>
      <point x="682" y="-238"/>
      <point x="559" y="-268"/>
      <point x="389" y="-268" type="curve" smooth="yes"/>
      <point x="379" y="-268" type="line" smooth="yes"/>
      <point x="210" y="-268"/>
      <point x="120" y="-230"/>
    </contour>
    <contour>
      <point x="137" y="212" type="curve"/>
      <point x="169" y="240"/>
      <point x="206" y="258"/>
      <point x="247" y="258" type="curve" smooth="yes"/>
      <point x="302" y="258"/>
      <point x="340" y="221"/>
      <point x="340" y="155" type="curve" smooth="yes"/>
      <point x="340" y="91"/>
      <point x="307" y="56"/>
      <point x="253" y="56" type="curve" smooth="yes"/>
      <point x="191" y="56"/>
      <point x="143" y="97"/>
    </contour>
  </outline>
</glyph>
<glyph name="Uzhakku" format="2">
  <advance width="1163"/>
  <unicode hex="11FD8"/>
  <guideline x="387" y="100" angle="270"/>
  <outline>
    <contour>
      <point x="40" y="287" type="line"/>
      <point x="119" y="287" type="line"/>
      <point x="119" y="408"/>
      <point x="182" y="492"/>
      <point x="294" y="492" type="curve" smooth="yes"/>
      <point x="400" y="492"/>
      <point x="466" y="423"/>
      <point x="484" y="298" type="curve"/>
      <point x="416" y="268"/>
      <point x="387" y="217"/>
      <point x="387" y="152" type="curve" smooth="yes"/>
      <point x="387" y="47"/>
      <point x="478" y="-12"/>
      <point x="599" y="-12" type="curve" smooth="yes"/>
      <point x="683" y="-12"/>
      <point x="748" y="6"/>
      <point x="790" y="57" type="curve" smooth="yes"/>
      <point x="818" y="91"/>
      <point x="834" y="136"/>
      <point x="834" y="226" type="curve" smooth="yes"/>
      <point x="834" y="257" type="line"/>
      <point x="933" y="253"/>
      <point x="1029" y="223"/>
      <point x="1029" y="105" type="curve" smooth="yes"/>
      <point x="1029" y="55"/>
      <point x="1015" y="16"/>
      <point x="988" y="-13" type="curve" smooth="yes"/>
      <point x="942" y="-63"/>
      <point x="870" y="-84"/>
      <point x="692" y="-84" type="curve" smooth="yes"/>
      <point x="585" y="-84" type="line" smooth="yes"/>
      <point x="518" y="-84"/>
      <point x="479" y="-94"/>
      <point x="444" y="-119" type="curve" smooth="yes"/>
      <point x="410" y="-144"/>
      <point x="387" y="-184"/>
      <point x="387" y="-243" type="curve" smooth="yes"/>
      <point x="387" y="-266"/>
      <point x="390" y="-297"/>
      <point x="394" y="-321" type="curve"/>
      <point x="476" y="-317" type="line"/>
      <point x="474" y="-301"/>
      <point x="473" y="-283"/>
      <point x="473" y="-263" type="curve" smooth="yes"/>
      <point x="473" y="-219"/>
      <point x="485" y="-194"/>
      <point x="507" y="-179" type="curve" smooth="yes"/>
      <point x="529" y="-164"/>
      <point x="556" y="-156"/>
      <point x="612" y="-156" type="curve" smooth="yes"/>
      <point x="723" y="-156" type="line" smooth="yes"/>
      <point x="867" y="-156"/>
      <point x="953" y="-141"/>
      <point x="1019" y="-94" type="curve" smooth="yes"/>
      <point x="1081" y="-50"/>
      <point x="1115" y="9"/>
      <point x="1115" y="98" type="curve" smooth="yes"/>
      <point x="1115" y="265"/>
      <point x="998" y="324"/>
      <point x="834" y="328" type="curve"/>
      <point x="834" y="482" type="line"/>
      <point x="1021" y="482" type="line"/>
      <point x="1021" y="554" type="line"/>
      <point x="510" y="554" type="line"/>
      <point x="510" y="426" type="line"/>
      <point x="480" y="506"/>
      <point x="405" y="566"/>
      <point x="289" y="566" type="curve" smooth="yes"/>
      <point x="136" y="566"/>
      <point x="40" y="457"/>
      <point x="40" y="293" type="curve" smooth="yes"/>
    </contour>
    <contour>
      <point x="473" y="153" type="curve" smooth="yes"/>
      <point x="473" y="191"/>
      <point x="487" y="215"/>
      <point x="516" y="232" type="curve" smooth="yes"/>
      <point x="549" y="251"/>
      <point x="595" y="258"/>
      <point x="663" y="258" type="curve" smooth="yes"/>
      <point x="749" y="258" type="line"/>
      <point x="749" y="213" type="line" smooth="yes"/>
      <point x="749" y="94"/>
      <point x="694" y="60"/>
      <point x="607" y="60" type="curve" smooth="yes"/>
      <point x="530" y="60"/>
      <point x="473" y="91"/>
    </contour>
    <contour>
      <point x="577" y="322" type="curve"/>
      <point x="577" y="482" type="line"/>
      <point x="749" y="482" type="line"/>
      <point x="749" y="328" type="line"/>
      <point x="670" y="328" type="line" smooth="yes"/>
      <point x="636" y="328"/>
      <point x="605" y="326"/>
    </contour>
  </outline>
</glyph>
<glyph name="Muuvuzhakku" format="2">
  <advance width="1595"/>
  <unicode hex="11FD9"/>
  <outline>
    <contour>
      <point x="88" y="0" type="line"/>
      <point x="174" y="0" type="line"/>
      <point x="174" y="482" type="line"/>
      <point x="344" y="482" type="line"/>
      <point x="344" y="144" type="line"/>
      <point x="430" y="144" type="line"/>
      <point x="430" y="246" type="line"/>
      <point x="459" y="269"/>
      <point x="500" y="289"/>
      <point x="543" y="289" type="curve" smooth="yes"/>
      <point x="595" y="289"/>
      <point x="632" y="263"/>
      <point x="632" y="192" type="curve" smooth="yes"/>
      <point x="632" y="146"/>
      <point x="617" y="105"/>
      <point x="595" y="72" type="curve"/>
      <point x="344" y="72" type="line"/>
      <point x="344" y="0" type="line"/>
      <point x="964" y="0" type="line"/>
      <point x="987" y="-8"/>
      <point x="1013" y="-12"/>
      <point x="1041" y="-12" type="curve" smooth="yes"/>
      <point x="1121" y="-12"/>
      <point x="1183" y="7"/>
      <point x="1223" y="57" type="curve" smooth="yes"/>
      <point x="1250" y="91"/>
      <point x="1266" y="136"/>
      <point x="1266" y="226" type="curve" smooth="yes"/>
      <point x="1266" y="257" type="line"/>
      <point x="1365" y="253"/>
      <point x="1461" y="223"/>
      <point x="1461" y="105" type="curve" smooth="yes"/>
      <point x="1461" y="55"/>
      <point x="1447" y="16"/>
      <point x="1420" y="-13" type="curve" smooth="yes"/>
      <point x="1374" y="-63"/>
      <point x="1302" y="-84"/>
      <point x="1124" y="-84" type="curve" smooth="yes"/>
      <point x="1015" y="-84" type="line" smooth="yes"/>
      <point x="948" y="-84"/>
      <point x="909" y="-94"/>
      <point x="874" y="-119" type="curve" smooth="yes"/>
      <point x="840" y="-144"/>
      <point x="817" y="-184"/>
      <point x="817" y="-243" type="curve" smooth="yes"/>
      <point x="817" y="-266"/>
      <point x="820" y="-297"/>
      <point x="824" y="-321" type="curve"/>
      <point x="906" y="-317" type="line"/>
      <point x="904" y="-301"/>
      <point x="903" y="-283"/>
      <point x="903" y="-263" type="curve" smooth="yes"/>
      <point x="903" y="-219"/>
      <point x="915" y="-194"/>
      <point x="937" y="-179" type="curve" smooth="yes"/>
      <point x="959" y="-164"/>
      <point x="986" y="-156"/>
      <point x="1042" y="-156" type="curve" smooth="yes"/>
      <point x="1155" y="-156" type="line" smooth="yes"/>
      <point x="1299" y="-156"/>
      <point x="1385" y="-141"/>
      <point x="1451" y="-94" type="curve" smooth="yes"/>
      <point x="1513" y="-50"/>
      <point x="1547" y="9"/>
      <point x="1547" y="98" type="curve" smooth="yes"/>
      <point x="1547" y="265"/>
      <point x="1430" y="324"/>
      <point x="1266" y="328" type="curve"/>
      <point x="1266" y="482" type="line"/>
      <point x="1453" y="482" type="line"/>
      <point x="1453" y="554" type="line"/>
      <point x="930" y="554" type="line"/>
      <point x="930" y="306" type="line"/>
      <point x="852" y="279"/>
      <point x="819" y="231"/>
      <point x="819" y="165" type="curve" smooth="yes"/>
      <point x="819" y="131"/>
      <point x="831" y="96"/>
      <point x="851" y="72" type="curve"/>
      <point x="682" y="72" type="line"/>
      <point x="703" y="108"/>
      <point x="718" y="153"/>
      <point x="718" y="201" type="curve" smooth="yes"/>
      <point x="718" y="302"/>
      <point x="658" y="362"/>
      <point x="558" y="362" type="curve" smooth="yes"/>
      <point x="499" y="362"/>
      <point x="456" y="340"/>
      <point x="430" y="324" type="curve"/>
      <point x="430" y="482" type="line"/>
      <point x="604" y="482" type="line"/>
      <point x="604" y="554" type="line"/>
      <point x="88" y="554" type="line"/>
    </contour>
    <contour>
      <point x="905" y="153" type="curve" smooth="yes"/>
      <point x="905" y="191"/>
      <point x="919" y="215"/>
      <point x="948" y="232" type="curve" smooth="yes"/>
      <point x="981" y="251"/>
      <point x="1027" y="258"/>
      <point x="1095" y="258" type="curve" smooth="yes"/>
      <point x="1181" y="258" type="line"/>
      <point x="1181" y="213" type="line" smooth="yes"/>
      <point x="1181" y="94"/>
      <point x="1126" y="60"/>
      <point x="1039" y="60" type="curve" smooth="yes"/>
      <point x="962" y="60"/>
      <point x="905" y="91"/>
    </contour>
    <contour>
      <point x="1009" y="323" type="curve"/>
      <point x="1009" y="482" type="line"/>
      <point x="1181" y="482" type="line"/>
      <point x="1181" y="328" type="line"/>
      <point x="1102" y="328" type="line" smooth="yes"/>
      <point x="1068" y="328"/>
      <point x="1037" y="326"/>
    </contour>
  </outline>
</glyph>
<glyph name="Kuruni" format="2">
  <advance width="693"/>
  <unicode hex="11FDA"/>
  <outline>
    <contour>
      <point x="88" y="0" type="line"/>
      <point x="590" y="0" type="line"/>
      <point x="590" y="-283" type="line"/>
      <point x="676" y="-283" type="line"/>
      <point x="676" y="72" type="line"/>
      <point x="174" y="72" type="line"/>
      <point x="174" y="554" type="line"/>
      <point x="88" y="554" type="line"/>
    </contour>
  </outline>
</glyph>
<glyph name="Pathakku" format="2">
  <advance width="1583"/>
  <unicode hex="11FDB"/>
  <outline>
    <contour>
      <point x="30" y="608" type="curve" smooth="yes"/>
      <point x="30" y="508"/>
      <point x="96" y="461"/>
      <point x="179" y="461" type="curve" smooth="yes"/>
      <point x="268" y="461"/>
      <point x="325" y="513"/>
      <point x="325" y="595" type="curve" smooth="yes"/>
      <point x="325" y="623"/>
      <point x="320" y="659"/>
      <point x="305" y="694" type="curve"/>
      <point x="385" y="684"/>
      <point x="435" y="634"/>
      <point x="435" y="554" type="curve" smooth="yes"/>
      <point x="435" y="466"/>
      <point x="388" y="420"/>
      <point x="311" y="374" type="curve" smooth="yes"/>
      <point x="269" y="349" type="line" smooth="yes"/>
      <point x="188" y="301"/>
      <point x="139" y="255"/>
      <point x="139" y="168" type="curve" smooth="yes"/>
      <point x="139" y="62"/>
      <point x="213" y="0"/>
      <point x="333" y="0" type="curve" smooth="yes"/>
      <point x="665" y="0" type="line"/>
      <point x="691" y="-8"/>
      <point x="721" y="-12"/>
      <point x="753" y="-12" type="curve" smooth="yes"/>
      <point x="837" y="-12"/>
      <point x="902" y="6"/>
      <point x="944" y="57" type="curve" smooth="yes"/>
      <point x="972" y="91"/>
      <point x="988" y="137"/>
      <point x="988" y="226" type="curve" smooth="yes"/>
      <point x="988" y="257" type="line"/>
      <point x="1106" y="250"/>
      <point x="1179" y="186"/>
      <point x="1179" y="55" type="curve" smooth="yes"/>
      <point x="1179" y="5"/>
      <point x="1168" y="-44"/>
      <point x="1149" y="-84" type="curve"/>
      <point x="649" y="-84" type="line" smooth="yes"/>
      <point x="579" y="-84"/>
      <point x="541" y="-115"/>
      <point x="541" y="-173" type="curve" smooth="yes"/>
      <point x="541" y="-263"/>
      <point x="659" y="-320"/>
      <point x="830" y="-320" type="curve" smooth="yes"/>
      <point x="834" y="-320" type="line" smooth="yes"/>
      <point x="1007" y="-320"/>
      <point x="1134" y="-262"/>
      <point x="1208" y="-156" type="curve"/>
      <point x="1495" y="-156" type="line"/>
      <point x="1495" y="554" type="line"/>
      <point x="1409" y="554" type="line"/>
      <point x="1409" y="-84" type="line"/>
      <point x="1239" y="-84" type="line"/>
      <point x="1256" y="-44"/>
      <point x="1268" y="7"/>
      <point x="1268" y="58" type="curve" smooth="yes"/>
      <point x="1268" y="229"/>
      <point x="1161" y="324"/>
      <point x="988" y="328" type="curve"/>
      <point x="988" y="482" type="line"/>
      <point x="1175" y="482" type="line"/>
      <point x="1175" y="554" type="line"/>
      <point x="652" y="554" type="line"/>
      <point x="652" y="303" type="line"/>
      <point x="574" y="274"/>
      <point x="541" y="221"/>
      <point x="541" y="153" type="curve" smooth="yes"/>
      <point x="541" y="122"/>
      <point x="549" y="95"/>
      <point x="563" y="72" type="curve"/>
      <point x="344" y="72" type="line" smooth="yes"/>
      <point x="264" y="72"/>
      <point x="226" y="112"/>
      <point x="226" y="167" type="curve" smooth="yes"/>
      <point x="226" y="225"/>
      <point x="261" y="252"/>
      <point x="322" y="291" type="curve" smooth="yes"/>
      <point x="361" y="316" type="line" smooth="yes"/>
      <point x="458" y="378"/>
      <point x="518" y="434"/>
      <point x="518" y="554" type="curve" smooth="yes"/>
      <point x="518" y="628"/>
      <point x="489" y="693"/>
      <point x="420" y="729" type="curve" smooth="yes"/>
      <point x="379" y="751"/>
      <point x="326" y="763"/>
      <point x="257" y="763" type="curve" smooth="yes"/>
      <point x="107" y="763"/>
      <point x="30" y="696"/>
    </contour>
    <contour>
      <point x="102" y="603" type="curve" smooth="yes"/>
      <point x="102" y="664"/>
      <point x="157" y="695"/>
      <point x="235" y="697" type="curve"/>
      <point x="249" y="668"/>
      <point x="255" y="638"/>
      <point x="255" y="609" type="curve" smooth="yes"/>
      <point x="255" y="550"/>
      <point x="223" y="527"/>
      <point x="179" y="527" type="curve" smooth="yes"/>
      <point x="130" y="527"/>
      <point x="102" y="558"/>
    </contour>
    <contour>
      <point x="625" y="-177" type="curve" smooth="yes"/>
      <point x="625" y="-162"/>
      <point x="635" y="-156"/>
      <point x="650" y="-156" type="curve" smooth="yes"/>
      <point x="1107" y="-156" type="line"/>
      <point x="1048" y="-214"/>
      <point x="962" y="-247"/>
      <point x="834" y="-247" type="curve" smooth="yes"/>
      <point x="830" y="-247" type="line" smooth="yes"/>
      <point x="692" y="-247"/>
      <point x="625" y="-207"/>
    </contour>
    <contour>
      <point x="627" y="153" type="curve" smooth="yes"/>
      <point x="627" y="191"/>
      <point x="641" y="215"/>
      <point x="670" y="232" type="curve" smooth="yes"/>
      <point x="703" y="251"/>
      <point x="749" y="258"/>
      <point x="817" y="258" type="curve" smooth="yes"/>
      <point x="903" y="258" type="line"/>
      <point x="903" y="213" type="line" smooth="yes"/>
      <point x="903" y="94"/>
      <point x="848" y="60"/>
      <point x="761" y="60" type="curve" smooth="yes"/>
      <point x="684" y="60"/>
      <point x="627" y="91"/>
    </contour>
    <contour>
      <point x="731" y="322" type="curve"/>
      <point x="731" y="482" type="line"/>
      <point x="903" y="482" type="line"/>
      <point x="903" y="328" type="line"/>
      <point x="824" y="328" type="line" smooth="yes"/>
      <point x="790" y="328"/>
      <point x="759" y="326"/>
    </contour>
  </outline>
</glyph>
<glyph name="Mukkuruni" format="2">
  <advance width="1338"/>
  <unicode hex="11FDC"/>
  <outline>
    <contour>
      <point x="88" y="0" type="line"/>
      <point x="174" y="0" type="line"/>
      <point x="174" y="482" type="line"/>
      <point x="348" y="482" type="line"/>
      <point x="348" y="0" type="line"/>
      <point x="434" y="0" type="line"/>
      <point x="434" y="240" type="line"/>
      <point x="457" y="267"/>
      <point x="496" y="289"/>
      <point x="538" y="289" type="curve" smooth="yes"/>
      <point x="607" y="289"/>
      <point x="642" y="250"/>
      <point x="642" y="171" type="curve" smooth="yes"/>
      <point x="642" y="0" type="line"/>
      <point x="725" y="0" type="line"/>
      <point x="725" y="156" type="line" smooth="yes"/>
      <point x="725" y="247"/>
      <point x="768" y="289"/>
      <point x="817" y="289" type="curve" smooth="yes"/>
      <point x="866" y="289"/>
      <point x="882" y="260"/>
      <point x="888" y="207" type="curve" smooth="yes"/>
      <point x="897" y="131" type="line" smooth="yes"/>
      <point x="907" y="48"/>
      <point x="953" y="-12"/>
      <point x="1060" y="-12" type="curve" smooth="yes"/>
      <point x="1209" y="-12"/>
      <point x="1275" y="108"/>
      <point x="1275" y="344" type="curve" smooth="yes"/>
      <point x="1275" y="728"/>
      <point x="1031" y="855"/>
      <point x="680" y="855" type="curve" smooth="yes"/>
      <point x="521" y="855"/>
      <point x="379" y="831"/>
      <point x="253" y="792" type="curve"/>
      <point x="270" y="724" type="line"/>
      <point x="387" y="758"/>
      <point x="530" y="780"/>
      <point x="679" y="780" type="curve" smooth="yes"/>
      <point x="982" y="780"/>
      <point x="1186" y="676"/>
      <point x="1186" y="342" type="curve" smooth="yes"/>
      <point x="1186" y="141"/>
      <point x="1137" y="61"/>
      <point x="1060" y="61" type="curve" smooth="yes"/>
      <point x="1010" y="61"/>
      <point x="983" y="89"/>
      <point x="977" y="149" type="curve" smooth="yes"/>
      <point x="969" y="226" type="line" smooth="yes"/>
      <point x="960" y="309"/>
      <point x="922" y="362"/>
      <point x="831" y="362" type="curve" smooth="yes"/>
      <point x="769" y="362"/>
      <point x="714" y="331"/>
      <point x="689" y="275" type="curve"/>
      <point x="670" y="331"/>
      <point x="624" y="362"/>
      <point x="556" y="362" type="curve" smooth="yes"/>
      <point x="506" y="362"/>
      <point x="463" y="342"/>
      <point x="434" y="316" type="curve"/>
      <point x="434" y="482" type="line"/>
      <point x="705" y="482" type="line"/>
      <point x="705" y="554" type="line"/>
      <point x="88" y="554" type="line"/>
    </contour>
  </outline>
</glyph>
<glyph name="Kaacu" format="2">
  <advance width="1171"/>
  <unicode hex="11FDD"/>
  <outline>
    <contour>
      <point x="49" y="152" type="curve" smooth="yes"/>
      <point x="49" y="47"/>
      <point x="140" y="-12"/>
      <point x="261" y="-12" type="curve" smooth="yes"/>
      <point x="345" y="-12"/>
      <point x="411" y="6"/>
      <point x="452" y="57" type="curve" smooth="yes"/>
      <point x="480" y="91"/>
      <point x="496" y="137"/>
      <point x="496" y="226" type="curve" smooth="yes"/>
      <point x="496" y="258" type="line"/>
      <point x="546" y="258" type="line" smooth="yes"/>
      <point x="609" y="258"/>
      <point x="642" y="232"/>
      <point x="642" y="162" type="curve" smooth="yes"/>
      <point x="642" y="0" type="line"/>
      <point x="725" y="0" type="line"/>
      <point x="725" y="148" type="line" smooth="yes"/>
      <point x="725" y="231"/>
      <point x="769" y="269"/>
      <point x="826" y="269" type="curve" smooth="yes"/>
      <point x="880" y="269"/>
      <point x="912" y="230"/>
      <point x="912" y="170" type="curve" smooth="yes"/>
      <point x="912" y="128"/>
      <point x="899" y="92"/>
      <point x="882" y="62" type="curve"/>
      <point x="897" y="0" type="line"/>
      <point x="1154" y="0" type="line"/>
      <point x="1154" y="72" type="line"/>
      <point x="970" y="72" type="line"/>
      <point x="988" y="103"/>
      <point x="998" y="141"/>
      <point x="998" y="182" type="curve" smooth="yes"/>
      <point x="998" y="280"/>
      <point x="937" y="342"/>
      <point x="841" y="342" type="curve" smooth="yes"/>
      <point x="773" y="342"/>
      <point x="715" y="312"/>
      <point x="688" y="256" type="curve"/>
      <point x="667" y="304"/>
      <point x="626" y="328"/>
      <point x="551" y="328" type="curve" smooth="yes"/>
      <point x="496" y="328" type="line"/>
      <point x="496" y="482" type="line"/>
      <point x="683" y="482" type="line"/>
      <point x="683" y="554" type="line"/>
      <point x="160" y="554" type="line"/>
      <point x="160" y="303" type="line"/>
      <point x="82" y="274"/>
      <point x="49" y="221"/>
    </contour>
    <contour>
      <point x="135" y="153" type="curve" smooth="yes"/>
      <point x="135" y="191"/>
      <point x="149" y="215"/>
      <point x="178" y="232" type="curve" smooth="yes"/>
      <point x="211" y="251"/>
      <point x="257" y="258"/>
      <point x="325" y="258" type="curve" smooth="yes"/>
      <point x="411" y="258" type="line"/>
      <point x="411" y="213" type="line" smooth="yes"/>
      <point x="411" y="94"/>
      <point x="356" y="60"/>
      <point x="269" y="60" type="curve" smooth="yes"/>
      <point x="192" y="60"/>
      <point x="135" y="91"/>
    </contour>
    <contour>
      <point x="239" y="322" type="curve"/>
      <point x="239" y="482" type="line"/>
      <point x="411" y="482" type="line"/>
      <point x="411" y="328" type="line"/>
      <point x="332" y="328" type="line" smooth="yes"/>
      <point x="298" y="328"/>
      <point x="267" y="326"/>
    </contour>
  </outline>
</glyph>
<glyph name="Panam" format="2">
  <advance width="1131"/>
  <unicode hex="11FDE"/>
  <guideline x="852" y="-87" angle="180"/>
  <outline>
    <contour>
      <point x="50" y="303" type="curve" smooth="yes"/>
      <point x="50" y="109"/>
      <point x="179" y="-12"/>
      <point x="393" y="-12" type="curve" smooth="yes"/>
      <point x="608" y="-12"/>
      <point x="718" y="113"/>
      <point x="718" y="312" type="curve" smooth="yes"/>
      <point x="718" y="379"/>
      <point x="695" y="439"/>
      <point x="670" y="478" type="curve"/>
      <point x="1111" y="478" type="line"/>
      <point x="1111" y="554" type="line"/>
      <point x="590" y="554" type="line"/>
      <point x="584" y="485" type="line"/>
      <point x="606" y="453"/>
      <point x="632" y="395"/>
      <point x="632" y="320" type="curve" smooth="yes"/>
      <point x="632" y="154"/>
      <point x="552" y="64"/>
      <point x="393" y="64" type="curve" smooth="yes"/>
      <point x="239" y="64"/>
      <point x="136" y="145"/>
      <point x="136" y="305" type="curve" smooth="yes"/>
      <point x="136" y="406"/>
      <point x="169" y="477"/>
      <point x="208" y="530" type="curve"/>
      <point x="143" y="575" type="line"/>
      <point x="100" y="528"/>
      <point x="50" y="434"/>
    </contour>
  </outline>
</glyph>
<glyph name="Pon" format="2">
  <advance width="1312"/>
  <unicode hex="11FDF"/>
  <outline>
    <contour>
      <point x="20" y="478" type="line"/>
      <point x="432" y="478" type="line"/>
      <point x="512" y="307" type="line" smooth="yes"/>
      <point x="595" y="130"/>
      <point x="707" y="-11"/>
      <point x="935" y="-11" type="curve" smooth="yes"/>
      <point x="1138" y="-11"/>
      <point x="1262" y="111"/>
      <point x="1262" y="316" type="curve" smooth="yes"/>
      <point x="1262" y="494"/>
      <point x="1161" y="608"/>
      <point x="995" y="608" type="curve" smooth="yes"/>
      <point x="851" y="608"/>
      <point x="757" y="523"/>
      <point x="757" y="400" type="curve" smooth="yes"/>
      <point x="757" y="370"/>
      <point x="762" y="341"/>
      <point x="770" y="317" type="curve"/>
      <point x="848" y="337" type="line"/>
      <point x="844" y="353"/>
      <point x="841" y="370"/>
      <point x="841" y="387" type="curve" smooth="yes"/>
      <point x="841" y="477"/>
      <point x="904" y="531"/>
      <point x="991" y="531" type="curve" smooth="yes"/>
      <point x="1101" y="531"/>
      <point x="1171" y="452"/>
      <point x="1171" y="316" type="curve" smooth="yes"/>
      <point x="1171" y="146"/>
      <point x="1074" y="65"/>
      <point x="931" y="65" type="curve" smooth="yes"/>
      <point x="768" y="65"/>
      <point x="667" y="171"/>
      <point x="588" y="345" type="curve" smooth="yes"/>
      <point x="522" y="490" type="line" smooth="yes"/>
      <point x="502" y="535"/>
      <point x="489" y="554"/>
      <point x="442" y="554" type="curve" smooth="yes"/>
      <point x="20" y="554" type="line"/>
    </contour>
  </outline>
</glyph>
<glyph name="Varaakan" format="2">
  <advance width="1273"/>
  <unicode hex="11FE0"/>
  <guideline x="732" y="19" angle="90"/>
  <guideline x="703" y="21" angle="90"/>
  <outline>
    <contour>
      <point x="30" y="608" type="curve" smooth="yes"/>
      <point x="30" y="508"/>
      <point x="96" y="461"/>
      <point x="179" y="461" type="curve" smooth="yes"/>
      <point x="268" y="461"/>
      <point x="325" y="513"/>
      <point x="325" y="595" type="curve" smooth="yes"/>
      <point x="325" y="623"/>
      <point x="320" y="659"/>
      <point x="305" y="694" type="curve"/>
      <point x="382" y="685"/>
      <point x="430" y="639"/>
      <point x="430" y="569" type="curve" smooth="yes"/>
      <point x="430" y="499"/>
      <point x="399" y="465"/>
      <point x="352" y="421" type="curve" smooth="yes"/>
      <point x="315" y="387" type="line" smooth="yes"/>
      <point x="239" y="320"/>
      <point x="178" y="265"/>
      <point x="178" y="162" type="curve" smooth="yes"/>
      <point x="178" y="55"/>
      <point x="249" y="-12"/>
      <point x="358" y="-12" type="curve" smooth="yes"/>
      <point x="456" y="-12"/>
      <point x="505" y="42"/>
      <point x="538" y="106" type="curve" smooth="yes"/>
      <point x="567" y="162" type="line" smooth="yes"/>
      <point x="610" y="246"/>
      <point x="660" y="274"/>
      <point x="714" y="274" type="curve" smooth="yes"/>
      <point x="725" y="274"/>
      <point x="734" y="273"/>
      <point x="742" y="273" type="curve"/>
      <point x="694" y="241"/>
      <point x="665" y="186"/>
      <point x="665" y="129" type="curve" smooth="yes"/>
      <point x="665" y="43"/>
      <point x="722" y="-12"/>
      <point x="803" y="-12" type="curve" smooth="yes"/>
      <point x="887" y="-12"/>
      <point x="937" y="43"/>
      <point x="937" y="129" type="curve" smooth="yes"/>
      <point x="937" y="183"/>
      <point x="914" y="231"/>
      <point x="871" y="266" type="curve"/>
      <point x="878" y="267"/>
      <point x="886" y="267"/>
      <point x="895" y="267" type="curve" smooth="yes"/>
      <point x="982" y="267"/>
      <point x="1026" y="222"/>
      <point x="1026" y="155" type="curve" smooth="yes"/>
      <point x="1026" y="109"/>
      <point x="1013" y="79"/>
      <point x="993" y="46" type="curve"/>
      <point x="997" y="0" type="line"/>
      <point x="1256" y="0" type="line"/>
      <point x="1256" y="58" type="line"/>
      <point x="1073" y="58" type="line"/>
      <point x="1093" y="91"/>
      <point x="1101" y="132"/>
      <point x="1101" y="166" type="curve" smooth="yes"/>
      <point x="1101" y="261"/>
      <point x="1034" y="326"/>
      <point x="905" y="326" type="curve" smooth="yes"/>
      <point x="869" y="326"/>
      <point x="838" y="320"/>
      <point x="810" y="308" type="curve"/>
      <point x="781" y="324"/>
      <point x="748" y="334"/>
      <point x="704" y="334" type="curve" smooth="yes"/>
      <point x="629" y="334"/>
      <point x="562" y="302"/>
      <point x="515" y="218" type="curve" smooth="yes"/>
      <point x="488" y="170" type="line" smooth="yes"/>
      <point x="450" y="103"/>
      <point x="422" y="61"/>
      <point x="359" y="61" type="curve" smooth="yes"/>
      <point x="304" y="61"/>
      <point x="265" y="101"/>
      <point x="265" y="160" type="curve" smooth="yes"/>
      <point x="265" y="236"/>
      <point x="315" y="276"/>
      <point x="367" y="327" type="curve" smooth="yes"/>
      <point x="398" y="357" type="line" smooth="yes"/>
      <point x="469" y="425"/>
      <point x="514" y="474"/>
      <point x="514" y="568" type="curve" smooth="yes"/>
      <point x="514" y="698"/>
      <point x="410" y="763"/>
      <point x="255" y="763" type="curve" smooth="yes"/>
      <point x="106" y="763"/>
      <point x="30" y="696"/>
    </contour>
    <contour>
      <point x="102" y="603" type="curve" smooth="yes"/>
      <point x="102" y="664"/>
      <point x="157" y="695"/>
      <point x="235" y="697" type="curve"/>
      <point x="249" y="668"/>
      <point x="255" y="638"/>
      <point x="255" y="609" type="curve" smooth="yes"/>
      <point x="255" y="550"/>
      <point x="223" y="527"/>
      <point x="179" y="527" type="curve" smooth="yes"/>
      <point x="130" y="527"/>
      <point x="102" y="558"/>
    </contour>
    <contour>
      <point x="739" y="133" type="curve" smooth="yes"/>
      <point x="739" y="182"/>
      <point x="761" y="223"/>
      <point x="805" y="249" type="curve"/>
      <point x="845" y="223"/>
      <point x="864" y="181"/>
      <point x="864" y="134" type="curve" smooth="yes"/>
      <point x="864" y="80"/>
      <point x="837" y="53"/>
      <point x="803" y="53" type="curve" smooth="yes"/>
      <point x="768" y="53"/>
      <point x="739" y="80"/>
    </contour>
  </outline>
</glyph>
<glyph name="Paaram" format="2">
  <advance width="1593"/>
  <unicode hex="11FE1"/>
  <outline>
    <contour>
      <point x="88" y="0" type="line"/>
      <point x="630" y="0" type="line"/>
      <point x="630" y="327" type="line" smooth="yes"/>
      <point x="630" y="386"/>
      <point x="633" y="434"/>
      <point x="655" y="463" type="curve" smooth="yes"/>
      <point x="669" y="482"/>
      <point x="689" y="494"/>
      <point x="720" y="494" type="curve" smooth="yes"/>
      <point x="751" y="494"/>
      <point x="772" y="481"/>
      <point x="785" y="461" type="curve" smooth="yes"/>
      <point x="805" y="431"/>
      <point x="810" y="386"/>
      <point x="810" y="321" type="curve" smooth="yes"/>
      <point x="810" y="0" type="line"/>
      <point x="896" y="0" type="line"/>
      <point x="896" y="319" type="line" smooth="yes"/>
      <point x="896" y="391"/>
      <point x="905" y="427"/>
      <point x="932" y="458" type="curve" smooth="yes"/>
      <point x="954" y="483"/>
      <point x="986" y="494"/>
      <point x="1021" y="494" type="curve" smooth="yes"/>
      <point x="1110" y="494"/>
      <point x="1174" y="428"/>
      <point x="1174" y="247" type="curve" smooth="yes"/>
      <point x="1174" y="108"/>
      <point x="1141" y="-7"/>
      <point x="1090" y="-84" type="curve"/>
      <point x="621" y="-84" type="line" smooth="yes"/>
      <point x="563" y="-84"/>
      <point x="543" y="-90"/>
      <point x="525" y="-103" type="curve" smooth="yes"/>
      <point x="506" y="-117"/>
      <point x="494" y="-138"/>
      <point x="494" y="-167" type="curve" smooth="yes"/>
      <point x="494" y="-277"/>
      <point x="619" y="-321"/>
      <point x="743" y="-321" type="curve" smooth="yes"/>
      <point x="763" y="-321" type="line" smooth="yes"/>
      <point x="934" y="-321"/>
      <point x="1059" y="-271"/>
      <point x="1152" y="-156" type="curve"/>
      <point x="1505" y="-156" type="line"/>
      <point x="1505" y="554" type="line"/>
      <point x="1419" y="554" type="line"/>
      <point x="1419" y="-84" type="line"/>
      <point x="1191" y="-84" type="line"/>
      <point x="1234" y="-2"/>
      <point x="1263" y="110"/>
      <point x="1263" y="244" type="curve" smooth="yes"/>
      <point x="1263" y="449"/>
      <point x="1180" y="566"/>
      <point x="1028" y="566" type="curve" smooth="yes"/>
      <point x="941" y="566"/>
      <point x="884" y="527"/>
      <point x="857" y="472" type="curve"/>
      <point x="828" y="533"/>
      <point x="781" y="566"/>
      <point x="713" y="566" type="curve" smooth="yes"/>
      <point x="663" y="566"/>
      <point x="625" y="552"/>
      <point x="597" y="524" type="curve" smooth="yes"/>
      <point x="556" y="483"/>
      <point x="544" y="438"/>
      <point x="544" y="341" type="curve" smooth="yes"/>
      <point x="544" y="72" type="line"/>
      <point x="174" y="72" type="line"/>
      <point x="174" y="554" type="line"/>
      <point x="88" y="554" type="line"/>
    </contour>
    <contour>
      <point x="577" y="-180" type="curve" smooth="yes"/>
      <point x="577" y="-158"/>
      <point x="596" y="-156"/>
      <point x="612" y="-156" type="curve" smooth="yes"/>
      <point x="1044" y="-156" type="line"/>
      <point x="970" y="-222"/>
      <point x="880" y="-248"/>
      <point x="765" y="-248" type="curve" smooth="yes"/>
      <point x="754" y="-248" type="line" smooth="yes"/>
      <point x="636" y="-248"/>
      <point x="577" y="-219"/>
    </contour>
  </outline>
</glyph>
<glyph name="Kuzhi" format="2">
  <advance width="1758"/>
  <unicode hex="11FE2"/>
  <outline>
    <contour>
      <point x="48" y="241" type="line" smooth="yes"/>
      <point x="48" y="-78"/>
      <point x="267" y="-275"/>
      <point x="587" y="-275" type="curve" smooth="yes"/>
      <point x="596" y="-275" type="line" smooth="yes"/>
      <point x="847" y="-275"/>
      <point x="1027" y="-151"/>
      <point x="1027" y="74" type="curve" smooth="yes"/>
      <point x="1027" y="200"/>
      <point x="960" y="320"/>
      <point x="784" y="328" type="curve"/>
      <point x="784" y="482" type="line"/>
      <point x="971" y="482" type="line"/>
      <point x="971" y="554" type="line"/>
      <point x="448" y="554" type="line"/>
      <point x="448" y="303" type="line"/>
      <point x="370" y="274"/>
      <point x="337" y="221"/>
      <point x="337" y="152" type="curve" smooth="yes"/>
      <point x="337" y="47"/>
      <point x="428" y="-12"/>
      <point x="550" y="-12" type="curve" smooth="yes"/>
      <point x="633" y="-12"/>
      <point x="699" y="6"/>
      <point x="740" y="57" type="curve" smooth="yes"/>
      <point x="768" y="91"/>
      <point x="784" y="137"/>
      <point x="784" y="226" type="curve" smooth="yes"/>
      <point x="784" y="257" type="line"/>
      <point x="875" y="247"/>
      <point x="939" y="189"/>
      <point x="939" y="75" type="curve" smooth="yes"/>
      <point x="939" y="-95"/>
      <point x="814" y="-198"/>
      <point x="592" y="-198" type="curve" smooth="yes"/>
      <point x="327" y="-198"/>
      <point x="134" y="-41"/>
      <point x="134" y="243" type="curve" smooth="yes"/>
      <point x="134" y="254" type="line" smooth="yes"/>
      <point x="134" y="582"/>
      <point x="371" y="777"/>
      <point x="745" y="777" type="curve" smooth="yes"/>
      <point x="1058" y="777"/>
      <point x="1274" y="608"/>
      <point x="1321" y="359" type="curve"/>
      <point x="1190" y="350"/>
      <point x="1094" y="271"/>
      <point x="1094" y="160" type="curve" smooth="yes"/>
      <point x="1094" y="75"/>
      <point x="1152" y="23"/>
      <point x="1235" y="23" type="curve" smooth="yes"/>
      <point x="1360" y="23"/>
      <point x="1411" y="117"/>
      <point x="1411" y="266" type="curve" smooth="yes"/>
      <point x="1411" y="276"/>
      <point x="1411" y="284"/>
      <point x="1410" y="292" type="curve"/>
      <point x="1476" y="277"/>
      <point x="1510" y="229"/>
      <point x="1510" y="162" type="curve" smooth="yes"/>
      <point x="1510" y="112"/>
      <point x="1498" y="81"/>
      <point x="1478" y="46" type="curve"/>
      <point x="1482" y="0" type="line"/>
      <point x="1741" y="0" type="line"/>
      <point x="1741" y="58" type="line"/>
      <point x="1558" y="58" type="line"/>
      <point x="1577" y="93"/>
      <point x="1585" y="136"/>
      <point x="1585" y="173" type="curve" smooth="yes"/>
      <point x="1585" y="274"/>
      <point x="1524" y="347"/>
      <point x="1405" y="359" type="curve"/>
      <point x="1366" y="648"/>
      <point x="1133" y="853"/>
      <point x="750" y="855" type="curve" smooth="yes"/>
      <point x="740" y="855" type="line" smooth="yes"/>
      <point x="315" y="855"/>
      <point x="48" y="638"/>
      <point x="48" y="256" type="curve" smooth="yes"/>
    </contour>
    <contour>
      <point x="423" y="153" type="curve" smooth="yes"/>
      <point x="423" y="191"/>
      <point x="437" y="215"/>
      <point x="466" y="232" type="curve" smooth="yes"/>
      <point x="499" y="251"/>
      <point x="545" y="258"/>
      <point x="613" y="258" type="curve" smooth="yes"/>
      <point x="699" y="258" type="line"/>
      <point x="699" y="213" type="line" smooth="yes"/>
      <point x="699" y="94"/>
      <point x="644" y="60"/>
      <point x="557" y="60" type="curve" smooth="yes"/>
      <point x="480" y="60"/>
      <point x="423" y="91"/>
    </contour>
    <contour>
      <point x="527" y="322" type="curve"/>
      <point x="527" y="482" type="line"/>
      <point x="699" y="482" type="line"/>
      <point x="699" y="328" type="line"/>
      <point x="620" y="328" type="line" smooth="yes"/>
      <point x="586" y="328"/>
      <point x="555" y="326"/>
    </contour>
    <contour>
      <point x="1172" y="162" type="curve" smooth="yes"/>
      <point x="1172" y="238"/>
      <point x="1241" y="290"/>
      <point x="1331" y="294" type="curve"/>
      <point x="1331" y="274" type="line" smooth="yes"/>
      <point x="1331" y="162"/>
      <point x="1301" y="93"/>
      <point x="1237" y="93" type="curve" smooth="yes"/>
      <point x="1199" y="93"/>
      <point x="1172" y="118"/>
    </contour>
  </outline>
</glyph>
<glyph name="Veli" format="2">
  <advance width="1692"/>
  <unicode hex="11FE3"/>
  <outline>
    <contour>
      <point x="57" y="242" type="curve" smooth="yes"/>
      <point x="57" y="63"/>
      <point x="142" y="-12"/>
      <point x="249" y="-12" type="curve" smooth="yes"/>
      <point x="356" y="-12"/>
      <point x="422" y="54"/>
      <point x="422" y="165" type="curve" smooth="yes"/>
      <point x="422" y="265"/>
      <point x="357" y="328"/>
      <point x="261" y="328" type="curve" smooth="yes"/>
      <point x="217" y="328"/>
      <point x="175" y="314"/>
      <point x="140" y="290" type="curve"/>
      <point x="159" y="410"/>
      <point x="235" y="492"/>
      <point x="355" y="492" type="curve" smooth="yes"/>
      <point x="409" y="492"/>
      <point x="445" y="479"/>
      <point x="472" y="455" type="curve" smooth="yes"/>
      <point x="523" y="407"/>
      <point x="529" y="322"/>
      <point x="530" y="250" type="curve" smooth="yes"/>
      <point x="531" y="149"/>
      <point x="554" y="78"/>
      <point x="597" y="38" type="curve" smooth="yes"/>
      <point x="631" y="5"/>
      <point x="679" y="-12"/>
      <point x="737" y="-12" type="curve" smooth="yes"/>
      <point x="868" y="-12"/>
      <point x="940" y="66"/>
      <point x="940" y="216" type="curve" smooth="yes"/>
      <point x="940" y="299"/>
      <point x="912" y="363"/>
      <point x="887" y="426" type="curve" smooth="yes"/>
      <point x="865" y="479" type="line" smooth="yes"/>
      <point x="849" y="518"/>
      <point x="832" y="561"/>
      <point x="832" y="621" type="curve" smooth="yes"/>
      <point x="832" y="730"/>
      <point x="910" y="799"/>
      <point x="1028" y="799" type="curve" smooth="yes"/>
      <point x="1158" y="799"/>
      <point x="1240" y="712"/>
      <point x="1260" y="570" type="curve"/>
      <point x="1125" y="563"/>
      <point x="1020" y="487"/>
      <point x="1020" y="378" type="curve" smooth="yes"/>
      <point x="1020" y="296"/>
      <point x="1077" y="245"/>
      <point x="1159" y="245" type="curve" smooth="yes"/>
      <point x="1287" y="245"/>
      <point x="1343" y="342"/>
      <point x="1343" y="492" type="curve" smooth="yes"/>
      <point x="1343" y="504" type="line"/>
      <point x="1408" y="491"/>
      <point x="1441" y="442"/>
      <point x="1441" y="373" type="curve" smooth="yes"/>
      <point x="1441" y="323"/>
      <point x="1429" y="292"/>
      <point x="1409" y="257" type="curve"/>
      <point x="1413" y="211" type="line"/>
      <point x="1672" y="211" type="line"/>
      <point x="1672" y="269" type="line"/>
      <point x="1489" y="269" type="line"/>
      <point x="1508" y="304"/>
      <point x="1516" y="347"/>
      <point x="1516" y="384" type="curve" smooth="yes"/>
      <point x="1516" y="485"/>
      <point x="1456" y="559"/>
      <point x="1341" y="571" type="curve"/>
      <point x="1320" y="756"/>
      <point x="1216" y="877"/>
      <point x="1025" y="877" type="curve" smooth="yes"/>
      <point x="858" y="877"/>
      <point x="741" y="780"/>
      <point x="741" y="620" type="curve" smooth="yes"/>
      <point x="741" y="547"/>
      <point x="767" y="487"/>
      <point x="789" y="435" type="curve" smooth="yes"/>
      <point x="810" y="386" type="line" smooth="yes"/>
      <point x="830" y="336"/>
      <point x="853" y="283"/>
      <point x="853" y="209" type="curve" smooth="yes"/>
      <point x="853" y="99"/>
      <point x="803" y="62"/>
      <point x="744" y="62" type="curve" smooth="yes"/>
      <point x="705" y="62"/>
      <point x="678" y="73"/>
      <point x="658" y="95" type="curve" smooth="yes"/>
      <point x="625" y="130"/>
      <point x="617" y="182"/>
      <point x="617" y="252" type="curve" smooth="yes"/>
      <point x="617" y="373"/>
      <point x="601" y="447"/>
      <point x="545" y="502" type="curve" smooth="yes"/>
      <point x="494" y="553"/>
      <point x="423" y="566"/>
      <point x="359" y="566" type="curve" smooth="yes"/>
      <point x="196" y="566"/>
      <point x="57" y="458"/>
    </contour>
    <contour>
      <point x="136" y="212" type="curve"/>
      <point x="169" y="240"/>
      <point x="206" y="258"/>
      <point x="247" y="258" type="curve" smooth="yes"/>
      <point x="302" y="258"/>
      <point x="340" y="221"/>
      <point x="340" y="155" type="curve" smooth="yes"/>
      <point x="340" y="91"/>
      <point x="307" y="56"/>
      <point x="253" y="56" type="curve" smooth="yes"/>
      <point x="191" y="56"/>
      <point x="142" y="98"/>
    </contour>
    <contour>
      <point x="1098" y="380" type="curve" smooth="yes"/>
      <point x="1098" y="452"/>
      <point x="1170" y="501"/>
      <point x="1264" y="505" type="curve"/>
      <point x="1264" y="498" type="line" smooth="yes"/>
      <point x="1264" y="385"/>
      <point x="1230" y="315"/>
      <point x="1159" y="315" type="curve" smooth="yes"/>
      <point x="1125" y="315"/>
      <point x="1098" y="337"/>
    </contour>
  </outline>
</glyph>
<glyph name="WetCultivationSign" format="2">
  <advance width="1381"/>
  <unicode hex="11FE4"/>
  <outline>
    <contour>
      <point x="88" y="0" type="line"/>
      <point x="174" y="0" type="line"/>
      <point x="174" y="482" type="line"/>
      <point x="348" y="482" type="line"/>
      <point x="348" y="0" type="line"/>
      <point x="434" y="0" type="line"/>
      <point x="434" y="240" type="line"/>
      <point x="457" y="267"/>
      <point x="497" y="289"/>
      <point x="540" y="289" type="curve" smooth="yes"/>
      <point x="610" y="289"/>
      <point x="646" y="250"/>
      <point x="646" y="171" type="curve" smooth="yes"/>
      <point x="646" y="18" type="line"/>
      <point x="533" y="-1"/>
      <point x="487" y="-66"/>
      <point x="487" y="-148" type="curve" smooth="yes"/>
      <point x="487" y="-266"/>
      <point x="589" y="-332"/>
      <point x="724" y="-332" type="curve" smooth="yes"/>
      <point x="911" y="-332"/>
      <point x="984" y="-247"/>
      <point x="984" y="-54" type="curve" smooth="yes"/>
      <point x="984" y="-42" type="line"/>
      <point x="1331" y="-42" type="line"/>
      <point x="1331" y="244" type="line"/>
      <point x="1245" y="244" type="line"/>
      <point x="1245" y="28" type="line"/>
      <point x="984" y="28" type="line"/>
      <point x="984" y="279" type="line"/>
      <point x="1151" y="279" type="line"/>
      <point x="1151" y="350" type="line"/>
      <point x="817" y="350" type="line" smooth="yes"/>
      <point x="755" y="350"/>
      <point x="712" y="328"/>
      <point x="691" y="280" type="curve"/>
      <point x="671" y="333"/>
      <point x="625" y="362"/>
      <point x="558" y="362" type="curve" smooth="yes"/>
      <point x="507" y="362"/>
      <point x="463" y="342"/>
      <point x="434" y="316" type="curve"/>
      <point x="434" y="482" type="line"/>
      <point x="609" y="482" type="line"/>
      <point x="609" y="554" type="line"/>
      <point x="88" y="554" type="line"/>
    </contour>
    <contour>
      <point x="573" y="-147" type="curve" smooth="yes"/>
      <point x="573" y="-61"/>
      <point x="652" y="-42"/>
      <point x="763" y="-42" type="curve" smooth="yes"/>
      <point x="899" y="-42" type="line"/>
      <point x="899" y="-67" type="line" smooth="yes"/>
      <point x="899" y="-217"/>
      <point x="834" y="-260"/>
      <point x="732" y="-260" type="curve" smooth="yes"/>
      <point x="641" y="-260"/>
      <point x="573" y="-222"/>
    </contour>
    <contour>
      <point x="729" y="27" type="curve"/>
      <point x="729" y="182" type="line" smooth="yes"/>
      <point x="729" y="249"/>
      <point x="767" y="279"/>
      <point x="809" y="279" type="curve" smooth="yes"/>
      <point x="899" y="279" type="line"/>
      <point x="899" y="28" type="line"/>
      <point x="770" y="28" type="line" smooth="yes"/>
      <point x="756" y="28"/>
      <point x="742" y="28"/>
    </contour>
  </outline>
</glyph>
<glyph name="DryCultivationSign" format="2">
  <advance width="1253"/>
  <unicode hex="11FE5"/>
  <guideline x="873" y="-337" angle="90"/>
  <outline>
    <contour>
      <point x="88" y="0" type="line"/>
      <point x="606" y="0" type="line"/>
      <point x="606" y="-51" type="line"/>
      <point x="466" y="-64"/>
      <point x="387" y="-128"/>
      <point x="387" y="-232" type="curve" smooth="yes"/>
      <point x="387" y="-315"/>
      <point x="444" y="-370"/>
      <point x="528" y="-370" type="curve" smooth="yes"/>
      <point x="640" y="-370"/>
      <point x="685" y="-301"/>
      <point x="685" y="-194" type="curve" smooth="yes"/>
      <point x="685" y="-102" type="line"/>
      <point x="693" y="-102" type="line" smooth="yes"/>
      <point x="738" y="-102"/>
      <point x="785" y="-109"/>
      <point x="820" y="-124" type="curve"/>
      <point x="775" y="-150"/>
      <point x="748" y="-196"/>
      <point x="748" y="-249" type="curve" smooth="yes"/>
      <point x="748" y="-320"/>
      <point x="800" y="-368"/>
      <point x="873" y="-368" type="curve" smooth="yes"/>
      <point x="949" y="-368"/>
      <point x="994" y="-317"/>
      <point x="994" y="-246" type="curve" smooth="yes"/>
      <point x="994" y="-191"/>
      <point x="967" y="-147"/>
      <point x="924" y="-120" type="curve"/>
      <point x="942" y="-113"/>
      <point x="960" y="-109"/>
      <point x="981" y="-109" type="curve" smooth="yes"/>
      <point x="1047" y="-109"/>
      <point x="1082" y="-147"/>
      <point x="1082" y="-209" type="curve" smooth="yes"/>
      <point x="1082" y="-258"/>
      <point x="1070" y="-289"/>
      <point x="1050" y="-323" type="curve"/>
      <point x="1054" y="-369" type="line"/>
      <point x="1313" y="-369" type="line"/>
      <point x="1313" y="-311" type="line"/>
      <point x="1130" y="-311" type="line"/>
      <point x="1149" y="-277"/>
      <point x="1157" y="-234"/>
      <point x="1157" y="-198" type="curve" smooth="yes"/>
      <point x="1157" y="-111"/>
      <point x="1099" y="-53"/>
      <point x="993" y="-53" type="curve" smooth="yes"/>
      <point x="948" y="-53"/>
      <point x="905" y="-66"/>
      <point x="872" y="-88" type="curve"/>
      <point x="819" y="-61"/>
      <point x="757" y="-48"/>
      <point x="690" y="-47" type="curve"/>
      <point x="690" y="554" type="line"/>
      <point x="604" y="554" type="line"/>
      <point x="604" y="72" type="line"/>
      <point x="174" y="72" type="line"/>
      <point x="174" y="554" type="line"/>
      <point x="88" y="554" type="line"/>
    </contour>
    <contour>
      <point x="461" y="-232" type="curve" smooth="yes"/>
      <point x="461" y="-163"/>
      <point x="517" y="-120"/>
      <point x="608" y="-110" type="curve"/>
      <point x="608" y="-189" type="line" smooth="yes"/>
      <point x="608" y="-261"/>
      <point x="582" y="-304"/>
      <point x="528" y="-304" type="curve" smooth="yes"/>
      <point x="490" y="-304"/>
      <point x="461" y="-278"/>
    </contour>
    <contour>
      <point x="815" y="-243" type="curve" smooth="yes"/>
      <point x="815" y="-203"/>
      <point x="837" y="-168"/>
      <point x="871" y="-148" type="curve"/>
      <point x="906" y="-166"/>
      <point x="928" y="-200"/>
      <point x="928" y="-243" type="curve" smooth="yes"/>
      <point x="928" y="-282"/>
      <point x="907" y="-308"/>
      <point x="873" y="-308" type="curve" smooth="yes"/>
      <point x="839" y="-308"/>
      <point x="815" y="-282"/>
    </contour>
  </outline>
</glyph>
<glyph name="LandSign" format="2">
  <advance width="1324"/>
  <unicode hex="11FE6"/>
  <outline>
    <contour>
      <point x="60" y="231" type="line" smooth="yes"/>
      <point x="60" y="-56"/>
      <point x="212" y="-291"/>
      <point x="561" y="-291" type="curve" smooth="yes"/>
      <point x="572" y="-291" type="line" smooth="yes"/>
      <point x="797" y="-291"/>
      <point x="1004" y="-174"/>
      <point x="1004" y="94" type="curve" smooth="yes"/>
      <point x="1004" y="232"/>
      <point x="930" y="319"/>
      <point x="822" y="319" type="curve" smooth="yes"/>
      <point x="773" y="319"/>
      <point x="735" y="302"/>
      <point x="710" y="284" type="curve"/>
      <point x="710" y="482" type="line"/>
      <point x="885" y="482" type="line"/>
      <point x="885" y="554" type="line"/>
      <point x="363" y="554" type="line"/>
      <point x="363" y="0" type="line"/>
      <point x="449" y="0" type="line"/>
      <point x="449" y="482" type="line"/>
      <point x="624" y="482" type="line"/>
      <point x="624" y="0" type="line"/>
      <point x="710" y="0" type="line"/>
      <point x="710" y="211" type="line"/>
      <point x="737" y="229"/>
      <point x="770" y="247"/>
      <point x="807" y="247" type="curve" smooth="yes"/>
      <point x="877" y="247"/>
      <point x="916" y="193"/>
      <point x="916" y="94" type="curve" smooth="yes"/>
      <point x="916" y="-114"/>
      <point x="775" y="-214"/>
      <point x="572" y="-214" type="curve" smooth="yes"/>
      <point x="561" y="-214" type="line" smooth="yes"/>
      <point x="272" y="-214"/>
      <point x="146" y="-23"/>
      <point x="146" y="244" type="curve" smooth="yes"/>
      <point x="146" y="256" type="line" smooth="yes"/>
      <point x="146" y="596"/>
      <point x="333" y="768"/>
      <point x="578" y="768" type="curve" smooth="yes"/>
      <point x="734" y="768"/>
      <point x="829" y="719"/>
      <point x="921" y="673" type="curve" smooth="yes"/>
      <point x="937" y="665" type="line" smooth="yes"/>
      <point x="1019" y="623"/>
      <point x="1080" y="597"/>
      <point x="1164" y="597" type="curve" smooth="yes"/>
      <point x="1299" y="597"/>
      <point x="1379" y="675"/>
      <point x="1404" y="786" type="curve"/>
      <point x="1333" y="808" type="line"/>
      <point x="1309" y="722"/>
      <point x="1248" y="671"/>
      <point x="1156" y="671" type="curve" smooth="yes"/>
      <point x="1088" y="671"/>
      <point x="1041" y="698"/>
      <point x="957" y="738" type="curve" smooth="yes"/>
      <point x="940" y="746" type="line" smooth="yes"/>
      <point x="844" y="791"/>
      <point x="744" y="843"/>
      <point x="582" y="843" type="curve" smooth="yes"/>
      <point x="263" y="843"/>
      <point x="60" y="623"/>
      <point x="60" y="279" type="curve" smooth="yes"/>
    </contour>
  </outline>
</glyph>
<glyph name="SaltPanSign" format="2">
  <advance width="1403"/>
  <unicode hex="11FE7"/>
  <outline>
    <contour>
      <point x="29" y="60" type="curve" smooth="yes"/>
      <point x="29" y="-48"/>
      <point x="127" y="-124"/>
      <point x="321" y="-124" type="curve" smooth="yes"/>
      <point x="342" y="-124" type="line" smooth="yes"/>
      <point x="554" y="-124"/>
      <point x="723" y="-45"/>
      <point x="789" y="104" type="curve"/>
      <point x="947" y="104" type="line"/>
      <point x="947" y="-90" type="line" smooth="yes"/>
      <point x="947" y="-134"/>
      <point x="943" y="-174"/>
      <point x="937" y="-204" type="curve"/>
      <point x="494" y="-204" type="line" smooth="yes"/>
      <point x="425" y="-204"/>
      <point x="388" y="-234"/>
      <point x="388" y="-295" type="curve" smooth="yes"/>
      <point x="388" y="-395"/>
      <point x="496" y="-451"/>
      <point x="656" y="-451" type="curve" smooth="yes"/>
      <point x="664" y="-451" type="line" smooth="yes"/>
      <point x="826" y="-451"/>
      <point x="953" y="-390"/>
      <point x="1004" y="-276" type="curve"/>
      <point x="1315" y="-276" type="line"/>
      <point x="1315" y="352" type="line"/>
      <point x="1229" y="352" type="line"/>
      <point x="1229" y="-204" type="line"/>
      <point x="1023" y="-204" type="line"/>
      <point x="1030" y="-163"/>
      <point x="1033" y="-111"/>
      <point x="1033" y="-70" type="curve" smooth="yes"/>
      <point x="1033" y="554" type="line"/>
      <point x="947" y="554" type="line"/>
      <point x="947" y="176" type="line"/>
      <point x="810" y="176" type="line"/>
      <point x="814" y="200"/>
      <point x="816" y="226"/>
      <point x="816" y="252" type="curve" smooth="yes"/>
      <point x="816" y="412"/>
      <point x="708" y="566"/>
      <point x="503" y="566" type="curve" smooth="yes"/>
      <point x="399" y="566"/>
      <point x="300" y="517"/>
      <point x="300" y="393" type="curve" smooth="yes"/>
      <point x="300" y="292"/>
      <point x="372" y="241"/>
      <point x="463" y="241" type="curve" smooth="yes"/>
      <point x="568" y="241"/>
      <point x="626" y="302"/>
      <point x="626" y="396" type="curve" smooth="yes"/>
      <point x="626" y="426"/>
      <point x="616" y="453"/>
      <point x="601" y="477" type="curve"/>
      <point x="690" y="438"/>
      <point x="730" y="348"/>
      <point x="730" y="251" type="curve" smooth="yes"/>
      <point x="730" y="225"/>
      <point x="727" y="200"/>
      <point x="721" y="176" type="curve"/>
      <point x="206" y="176" type="line" smooth="yes"/>
      <point x="125" y="176"/>
      <point x="99" y="166"/>
      <point x="74" y="149" type="curve" smooth="yes"/>
      <point x="43" y="128"/>
      <point x="29" y="93"/>
    </contour>
    <contour>
      <point x="114" y="56" type="curve" smooth="yes"/>
      <point x="114" y="71"/>
      <point x="120" y="83"/>
      <point x="129" y="90" type="curve" smooth="yes"/>
      <point x="144" y="101"/>
      <point x="154" y="104"/>
      <point x="217" y="104" type="curve" smooth="yes"/>
      <point x="695" y="104" type="line"/>
      <point x="641" y="13"/>
      <point x="528" y="-51"/>
      <point x="344" y="-51" type="curve" smooth="yes"/>
      <point x="327" y="-51" type="line" smooth="yes"/>
      <point x="184" y="-51"/>
      <point x="114" y="-9"/>
    </contour>
    <contour>
      <point x="379" y="397" type="curve" smooth="yes"/>
      <point x="379" y="464"/>
      <point x="430" y="497"/>
      <point x="493" y="497" type="curve" smooth="yes"/>
      <point x="514" y="496" type="line"/>
      <point x="539" y="468"/>
      <point x="548" y="438"/>
      <point x="548" y="400" type="curve" smooth="yes"/>
      <point x="548" y="341"/>
      <point x="515" y="309"/>
      <point x="465" y="309" type="curve" smooth="yes"/>
      <point x="410" y="309"/>
      <point x="379" y="347"/>
    </contour>
    <contour>
      <point x="471" y="-300" type="curve" smooth="yes"/>
      <point x="471" y="-278"/>
      <point x="490" y="-276"/>
      <point x="506" y="-276" type="curve" smooth="yes"/>
      <point x="915" y="-276" type="line"/>
      <point x="870" y="-344"/>
      <point x="785" y="-378"/>
      <point x="669" y="-378" type="curve" smooth="yes"/>
      <point x="659" y="-378" type="line" smooth="yes"/>
      <point x="536" y="-378"/>
      <point x="471" y="-345"/>
    </contour>
  </outline>
</glyph>
<glyph name="TraditionalCreditSign" format="2">
  <advance width="1519"/>
  <unicode hex="11FE8"/>
  <outline>
    <contour>
      <point x="57" y="243" type="curve" smooth="yes"/>
      <point x="57" y="63"/>
      <point x="142" y="-12"/>
      <point x="249" y="-12" type="curve" smooth="yes"/>
      <point x="356" y="-12"/>
      <point x="422" y="54"/>
      <point x="422" y="165" type="curve" smooth="yes"/>
      <point x="422" y="265"/>
      <point x="357" y="328"/>
      <point x="261" y="328" type="curve" smooth="yes"/>
      <point x="218" y="328"/>
      <point x="175" y="313"/>
      <point x="140" y="290" type="curve"/>
      <point x="158" y="408"/>
      <point x="237" y="492"/>
      <point x="360" y="492" type="curve" smooth="yes"/>
      <point x="484" y="492"/>
      <point x="563" y="411"/>
      <point x="563" y="269" type="curve" smooth="yes"/>
      <point x="563" y="178"/>
      <point x="542" y="109"/>
      <point x="511" y="63" type="curve"/>
      <point x="515" y="0" type="line"/>
      <point x="872" y="0" type="line"/>
      <point x="872" y="-51" type="line"/>
      <point x="732" y="-64"/>
      <point x="653" y="-128"/>
      <point x="653" y="-232" type="curve" smooth="yes"/>
      <point x="653" y="-315"/>
      <point x="710" y="-370"/>
      <point x="794" y="-370" type="curve" smooth="yes"/>
      <point x="906" y="-370"/>
      <point x="951" y="-301"/>
      <point x="951" y="-194" type="curve" smooth="yes"/>
      <point x="951" y="-102" type="line"/>
      <point x="959" y="-102" type="line" smooth="yes"/>
      <point x="1004" y="-102"/>
      <point x="1051" y="-109"/>
      <point x="1086" y="-124" type="curve"/>
      <point x="1041" y="-150"/>
      <point x="1014" y="-196"/>
      <point x="1014" y="-249" type="curve" smooth="yes"/>
      <point x="1014" y="-320"/>
      <point x="1066" y="-368"/>
      <point x="1139" y="-368" type="curve" smooth="yes"/>
      <point x="1215" y="-368"/>
      <point x="1260" y="-317"/>
      <point x="1260" y="-246" type="curve" smooth="yes"/>
      <point x="1260" y="-191"/>
      <point x="1233" y="-147"/>
      <point x="1190" y="-120" type="curve"/>
      <point x="1208" y="-113"/>
      <point x="1226" y="-109"/>
      <point x="1247" y="-109" type="curve" smooth="yes"/>
      <point x="1313" y="-109"/>
      <point x="1348" y="-147"/>
      <point x="1348" y="-209" type="curve" smooth="yes"/>
      <point x="1348" y="-258"/>
      <point x="1336" y="-289"/>
      <point x="1316" y="-323" type="curve"/>
      <point x="1320" y="-369" type="line"/>
      <point x="1579" y="-369" type="line"/>
      <point x="1579" y="-311" type="line"/>
      <point x="1396" y="-311" type="line"/>
      <point x="1415" y="-277"/>
      <point x="1423" y="-234"/>
      <point x="1423" y="-198" type="curve" smooth="yes"/>
      <point x="1423" y="-111"/>
      <point x="1365" y="-53"/>
      <point x="1259" y="-53" type="curve" smooth="yes"/>
      <point x="1214" y="-53"/>
      <point x="1171" y="-66"/>
      <point x="1138" y="-88" type="curve"/>
      <point x="1085" y="-61"/>
      <point x="1023" y="-48"/>
      <point x="956" y="-47" type="curve"/>
      <point x="956" y="554" type="line"/>
      <point x="870" y="554" type="line"/>
      <point x="870" y="72" type="line"/>
      <point x="603" y="72" type="line"/>
      <point x="630" y="131"/>
      <point x="651" y="194"/>
      <point x="651" y="280" type="curve" smooth="yes"/>
      <point x="651" y="437"/>
      <point x="567" y="566"/>
      <point x="364" y="566" type="curve" smooth="yes"/>
      <point x="199" y="566"/>
      <point x="57" y="457"/>
    </contour>
    <contour>
      <point x="137" y="212" type="curve"/>
      <point x="169" y="240"/>
      <point x="206" y="258"/>
      <point x="247" y="258" type="curve" smooth="yes"/>
      <point x="302" y="258"/>
      <point x="340" y="221"/>
      <point x="340" y="155" type="curve" smooth="yes"/>
      <point x="340" y="91"/>
      <point x="305" y="56"/>
      <point x="253" y="56" type="curve" smooth="yes"/>
      <point x="191" y="56"/>
      <point x="143" y="97"/>
    </contour>
    <contour>
      <point x="727" y="-232" type="curve" smooth="yes"/>
      <point x="727" y="-163"/>
      <point x="783" y="-120"/>
      <point x="874" y="-110" type="curve"/>
      <point x="874" y="-189" type="line" smooth="yes"/>
      <point x="874" y="-261"/>
      <point x="848" y="-304"/>
      <point x="794" y="-304" type="curve" smooth="yes"/>
      <point x="756" y="-304"/>
      <point x="727" y="-278"/>
    </contour>
    <contour>
      <point x="1081" y="-243" type="curve" smooth="yes"/>
      <point x="1081" y="-203"/>
      <point x="1103" y="-168"/>
      <point x="1137" y="-148" type="curve"/>
      <point x="1172" y="-166"/>
      <point x="1194" y="-200"/>
      <point x="1194" y="-243" type="curve" smooth="yes"/>
      <point x="1194" y="-282"/>
      <point x="1173" y="-308"/>
      <point x="1139" y="-308" type="curve" smooth="yes"/>
      <point x="1105" y="-308"/>
      <point x="1081" y="-282"/>
    </contour>
  </outline>
</glyph>
<glyph name="TraditionalNumberSign" format="2">
  <advance width="1140"/>
  <unicode hex="11FE9"/>
  <outline>
    <contour>
      <point x="88" y="0" type="line"/>
      <point x="174" y="0" type="line"/>
      <point x="174" y="482" type="line"/>
      <point x="348" y="482" type="line"/>
      <point x="348" y="0" type="line"/>
      <point x="434" y="0" type="line"/>
      <point x="434" y="240" type="line"/>
      <point x="457" y="267"/>
      <point x="496" y="289"/>
      <point x="538" y="289" type="curve" smooth="yes"/>
      <point x="607" y="289"/>
      <point x="642" y="250"/>
      <point x="642" y="171" type="curve" smooth="yes"/>
      <point x="642" y="0" type="line"/>
      <point x="725" y="0" type="line"/>
      <point x="725" y="158" type="line" smooth="yes"/>
      <point x="725" y="248"/>
      <point x="768" y="289"/>
      <point x="824" y="289" type="curve" smooth="yes"/>
      <point x="879" y="289"/>
      <point x="912" y="247"/>
      <point x="912" y="183" type="curve" smooth="yes"/>
      <point x="912" y="136"/>
      <point x="899" y="96"/>
      <point x="882" y="62" type="curve"/>
      <point x="886" y="0" type="line"/>
      <point x="1123" y="0" type="line"/>
      <point x="1123" y="72" type="line"/>
      <point x="970" y="72" type="line"/>
      <point x="988" y="107"/>
      <point x="998" y="149"/>
      <point x="998" y="195" type="curve" smooth="yes"/>
      <point x="998" y="297"/>
      <point x="935" y="362"/>
      <point x="836" y="362" type="curve" smooth="yes"/>
      <point x="765" y="362"/>
      <point x="716" y="326"/>
      <point x="691" y="268" type="curve"/>
      <point x="673" y="326"/>
      <point x="626" y="362"/>
      <point x="556" y="362" type="curve" smooth="yes"/>
      <point x="506" y="362"/>
      <point x="463" y="342"/>
      <point x="434" y="316" type="curve"/>
      <point x="434" y="482" type="line"/>
      <point x="609" y="482" type="line"/>
      <point x="609" y="554" type="line"/>
      <point x="88" y="554" type="line"/>
    </contour>
  </outline>
</glyph>
<glyph name="CurrentSign" format="2">
  <advance width="1326"/>
  <unicode hex="11FEA"/>
  <guideline x="892" y="362" angle="0"/>
  <outline>
    <contour>
      <point x="88" y="0" type="line"/>
      <point x="174" y="0" type="line"/>
      <point x="174" y="482" type="line"/>
      <point x="348" y="482" type="line"/>
      <point x="348" y="0" type="line"/>
      <point x="434" y="0" type="line"/>
      <point x="434" y="240" type="line"/>
      <point x="456" y="267"/>
      <point x="495" y="289"/>
      <point x="537" y="289" type="curve" smooth="yes"/>
      <point x="605" y="289"/>
      <point x="640" y="250"/>
      <point x="640" y="171" type="curve" smooth="yes"/>
      <point x="640" y="0" type="line"/>
      <point x="723" y="0" type="line"/>
      <point x="723" y="166" type="line" smooth="yes"/>
      <point x="723" y="241"/>
      <point x="758" y="288"/>
      <point x="820" y="288" type="curve" smooth="yes"/>
      <point x="888" y="288"/>
      <point x="920" y="230"/>
      <point x="920" y="143" type="curve" smooth="yes"/>
      <point x="920" y="52"/>
      <point x="900" y="-26"/>
      <point x="874" y="-84" type="curve"/>
      <point x="432" y="-84" type="line" smooth="yes"/>
      <point x="375" y="-84"/>
      <point x="355" y="-90"/>
      <point x="337" y="-103" type="curve"/>
      <point x="318" y="-118"/>
      <point x="306" y="-140"/>
      <point x="306" y="-171" type="curve" smooth="yes"/>
      <point x="306" y="-276"/>
      <point x="426" y="-321"/>
      <point x="544" y="-321" type="curve" smooth="yes"/>
      <point x="556" y="-321" type="line" smooth="yes"/>
      <point x="721" y="-321"/>
      <point x="853" y="-267"/>
      <point x="931" y="-156" type="curve"/>
      <point x="1238" y="-156" type="line"/>
      <point x="1238" y="352" type="line"/>
      <point x="1152" y="352" type="line"/>
      <point x="1152" y="-84" type="line"/>
      <point x="965" y="-84" type="line"/>
      <point x="992" y="-19"/>
      <point x="1009" y="60"/>
      <point x="1009" y="148" type="curve" smooth="yes"/>
      <point x="1009" y="280"/>
      <point x="949" y="362"/>
      <point x="835" y="362" type="curve" smooth="yes"/>
      <point x="769" y="362"/>
      <point x="710" y="330"/>
      <point x="685" y="273" type="curve"/>
      <point x="666" y="328"/>
      <point x="619" y="362"/>
      <point x="552" y="362" type="curve" smooth="yes"/>
      <point x="503" y="362"/>
      <point x="461" y="343"/>
      <point x="434" y="316" type="curve"/>
      <point x="434" y="482" type="line"/>
      <point x="603" y="482" type="line"/>
      <point x="603" y="554" type="line"/>
      <point x="88" y="554" type="line"/>
    </contour>
    <contour>
      <point x="389" y="-180" type="curve" smooth="yes"/>
      <point x="389" y="-158"/>
      <point x="408" y="-156"/>
      <point x="424" y="-156" type="curve" smooth="yes"/>
      <point x="833" y="-156" type="line"/>
      <point x="764" y="-221"/>
      <point x="676" y="-248"/>
      <point x="561" y="-248" type="curve" smooth="yes"/>
      <point x="557" y="-248" type="line" smooth="yes"/>
      <point x="447" y="-248"/>
      <point x="389" y="-217"/>
    </contour>
  </outline>
</glyph>
<glyph name="AndOddSign" format="2">
  <advance width="1240"/>
  <unicode hex="11FEB"/>
  <outline>
    <contour>
      <point x="49" y="152" type="curve" smooth="yes"/>
      <point x="49" y="47"/>
      <point x="140" y="-12"/>
      <point x="261" y="-12" type="curve" smooth="yes"/>
      <point x="345" y="-12"/>
      <point x="411" y="6"/>
      <point x="452" y="57" type="curve" smooth="yes"/>
      <point x="480" y="91"/>
      <point x="496" y="136"/>
      <point x="496" y="226" type="curve" smooth="yes"/>
      <point x="496" y="258" type="line"/>
      <point x="683" y="258" type="line"/>
      <point x="683" y="328" type="line"/>
      <point x="496" y="328" type="line"/>
      <point x="496" y="482" type="line"/>
      <point x="683" y="482" type="line"/>
      <point x="683" y="554" type="line"/>
      <point x="455" y="554" type="line"/>
      <point x="404" y="588"/>
      <point x="370" y="636"/>
      <point x="370" y="694" type="curve" smooth="yes"/>
      <point x="370" y="749"/>
      <point x="405" y="782"/>
      <point x="454" y="782" type="curve" smooth="yes"/>
      <point x="504" y="782"/>
      <point x="532" y="747"/>
      <point x="532" y="681" type="curve" smooth="yes"/>
      <point x="532" y="650" type="line"/>
      <point x="613" y="650" type="line"/>
      <point x="613" y="678" type="line" smooth="yes"/>
      <point x="613" y="776"/>
      <point x="668" y="821"/>
      <point x="742" y="821" type="curve" smooth="yes"/>
      <point x="779" y="821"/>
      <point x="806" y="812"/>
      <point x="824" y="798" type="curve"/>
      <point x="748" y="791"/>
      <point x="698" y="744"/>
      <point x="698" y="677" type="curve" smooth="yes"/>
      <point x="698" y="606"/>
      <point x="751" y="563"/>
      <point x="818" y="563" type="curve" smooth="yes"/>
      <point x="903" y="563"/>
      <point x="941" y="614"/>
      <point x="941" y="686" type="curve" smooth="yes"/>
      <point x="941" y="704"/>
      <point x="938" y="725"/>
      <point x="930" y="746" type="curve"/>
      <point x="982" y="738"/>
      <point x="1009" y="701"/>
      <point x="1009" y="651" type="curve" smooth="yes"/>
      <point x="1009" y="602"/>
      <point x="997" y="573"/>
      <point x="977" y="538" type="curve"/>
      <point x="981" y="492" type="line"/>
      <point x="1200" y="492" type="line"/>
      <point x="1200" y="550" type="line"/>
      <point x="1057" y="550" type="line"/>
      <point x="1076" y="584"/>
      <point x="1084" y="623"/>
      <point x="1084" y="659" type="curve" smooth="yes"/>
      <point x="1084" y="743"/>
      <point x="1020" y="804"/>
      <point x="899" y="807" type="curve"/>
      <point x="869" y="847"/>
      <point x="818" y="881"/>
      <point x="736" y="881" type="curve" smooth="yes"/>
      <point x="656" y="881"/>
      <point x="592" y="843"/>
      <point x="571" y="777" type="curve"/>
      <point x="551" y="824"/>
      <point x="508" y="852"/>
      <point x="445" y="852" type="curve" smooth="yes"/>
      <point x="352" y="852"/>
      <point x="293" y="788"/>
      <point x="293" y="697" type="curve" smooth="yes"/>
      <point x="293" y="640"/>
      <point x="321" y="590"/>
      <point x="362" y="554" type="curve"/>
      <point x="160" y="554" type="line"/>
      <point x="160" y="303" type="line"/>
      <point x="82" y="274"/>
      <point x="49" y="221"/>
    </contour>
    <contour>
      <point x="135" y="153" type="curve" smooth="yes"/>
      <point x="135" y="191"/>
      <point x="149" y="215"/>
      <point x="178" y="232" type="curve" smooth="yes"/>
      <point x="211" y="251"/>
      <point x="257" y="258"/>
      <point x="325" y="258" type="curve" smooth="yes"/>
      <point x="411" y="258" type="line"/>
      <point x="411" y="213" type="line" smooth="yes"/>
      <point x="411" y="94"/>
      <point x="356" y="60"/>
      <point x="269" y="60" type="curve" smooth="yes"/>
      <point x="192" y="60"/>
      <point x="135" y="91"/>
    </contour>
    <contour>
      <point x="239" y="322" type="curve"/>
      <point x="239" y="482" type="line"/>
      <point x="411" y="482" type="line"/>
      <point x="411" y="328" type="line"/>
      <point x="332" y="328" type="line" smooth="yes"/>
      <point x="298" y="328"/>
      <point x="267" y="326"/>
    </contour>
    <contour>
      <point x="767" y="677" type="curve" smooth="yes"/>
      <point x="767" y="719"/>
      <point x="803" y="747"/>
      <point x="859" y="749" type="curve"/>
      <point x="867" y="733"/>
      <point x="872" y="714"/>
      <point x="872" y="691" type="curve" smooth="yes"/>
      <point x="872" y="652"/>
      <point x="855" y="625"/>
      <point x="818" y="625" type="curve" smooth="yes"/>
      <point x="791" y="625"/>
      <point x="767" y="643"/>
    </contour>
  </outline>
</glyph>
<glyph name="SpentSign" format="2">
  <advance width="1031"/>
  <unicode hex="11FEC"/>
  <outline>
    <contour>
      <point x="88" y="0" type="line"/>
      <point x="690" y="0" type="line"/>
      <point x="690" y="518" type="line"/>
      <point x="606" y="518" type="line" smooth="yes"/>
      <point x="506" y="518"/>
      <point x="427" y="568"/>
      <point x="427" y="665" type="curve" smooth="yes"/>
      <point x="427" y="755"/>
      <point x="492" y="806"/>
      <point x="583" y="806" type="curve" smooth="yes"/>
      <point x="587" y="806" type="line"/>
      <point x="556" y="785"/>
      <point x="539" y="754"/>
      <point x="539" y="713" type="curve" smooth="yes"/>
      <point x="539" y="653"/>
      <point x="586" y="612"/>
      <point x="651" y="612" type="curve" smooth="yes"/>
      <point x="719" y="612"/>
      <point x="759" y="655"/>
      <point x="759" y="716" type="curve" smooth="yes"/>
      <point x="759" y="762"/>
      <point x="738" y="801"/>
      <point x="700" y="821" type="curve"/>
      <point x="710" y="824"/>
      <point x="721" y="825"/>
      <point x="735" y="825" type="curve" smooth="yes"/>
      <point x="802" y="825"/>
      <point x="840" y="779"/>
      <point x="840" y="709" type="curve" smooth="yes"/>
      <point x="840" y="659"/>
      <point x="828" y="628"/>
      <point x="808" y="593" type="curve"/>
      <point x="812" y="547" type="line"/>
      <point x="1031" y="547" type="line"/>
      <point x="1031" y="605" type="line"/>
      <point x="888" y="605" type="line"/>
      <point x="907" y="640"/>
      <point x="915" y="683"/>
      <point x="915" y="720" type="curve" smooth="yes"/>
      <point x="915" y="815"/>
      <point x="854" y="881"/>
      <point x="746" y="881" type="curve" smooth="yes"/>
      <point x="707" y="881"/>
      <point x="672" y="869"/>
      <point x="644" y="851" type="curve"/>
      <point x="621" y="859"/>
      <point x="594" y="864"/>
      <point x="565" y="864" type="curve" smooth="yes"/>
      <point x="431" y="864"/>
      <point x="350" y="780"/>
      <point x="350" y="665" type="curve" smooth="yes"/>
      <point x="350" y="529"/>
      <point x="450" y="457"/>
      <point x="604" y="450" type="curve"/>
      <point x="604" y="72" type="line"/>
      <point x="174" y="72" type="line"/>
      <point x="174" y="554" type="line"/>
      <point x="88" y="554" type="line"/>
    </contour>
    <contour>
      <point x="602" y="723" type="curve" smooth="yes"/>
      <point x="602" y="754"/>
      <point x="619" y="781"/>
      <point x="647" y="797" type="curve"/>
      <point x="677" y="784"/>
      <point x="697" y="756"/>
      <point x="697" y="723" type="curve" smooth="yes"/>
      <point x="697" y="690"/>
      <point x="680" y="668"/>
      <point x="651" y="668" type="curve" smooth="yes"/>
      <point x="623" y="668"/>
      <point x="602" y="690"/>
    </contour>
  </outline>
</glyph>
<glyph name="TotalSign" format="2">
  <advance width="1601"/>
  <unicode hex="11FED"/>
  <outline>
    <contour>
      <point x="29" y="60" type="curve" smooth="yes"/>
      <point x="29" y="-48"/>
      <point x="127" y="-124"/>
      <point x="321" y="-124" type="curve" smooth="yes"/>
      <point x="342" y="-124" type="line" smooth="yes"/>
      <point x="554" y="-124"/>
      <point x="723" y="-45"/>
      <point x="789" y="104" type="curve"/>
      <point x="947" y="104" type="line"/>
      <point x="947" y="-49" type="line"/>
      <point x="811" y="-66"/>
      <point x="735" y="-130"/>
      <point x="735" y="-232" type="curve" smooth="yes"/>
      <point x="735" y="-315"/>
      <point x="792" y="-370"/>
      <point x="876" y="-370" type="curve" smooth="yes"/>
      <point x="988" y="-370"/>
      <point x="1033" y="-301"/>
      <point x="1033" y="-194" type="curve" smooth="yes"/>
      <point x="1033" y="-102" type="line"/>
      <point x="1041" y="-102" type="line" smooth="yes"/>
      <point x="1086" y="-102"/>
      <point x="1133" y="-109"/>
      <point x="1168" y="-124" type="curve"/>
      <point x="1123" y="-150"/>
      <point x="1096" y="-196"/>
      <point x="1096" y="-249" type="curve" smooth="yes"/>
      <point x="1096" y="-320"/>
      <point x="1148" y="-368"/>
      <point x="1221" y="-368" type="curve" smooth="yes"/>
      <point x="1297" y="-368"/>
      <point x="1342" y="-317"/>
      <point x="1342" y="-246" type="curve" smooth="yes"/>
      <point x="1342" y="-191"/>
      <point x="1315" y="-147"/>
      <point x="1272" y="-120" type="curve"/>
      <point x="1290" y="-113"/>
      <point x="1308" y="-109"/>
      <point x="1329" y="-109" type="curve" smooth="yes"/>
      <point x="1395" y="-109"/>
      <point x="1430" y="-147"/>
      <point x="1430" y="-209" type="curve" smooth="yes"/>
      <point x="1430" y="-258"/>
      <point x="1418" y="-289"/>
      <point x="1398" y="-323" type="curve"/>
      <point x="1402" y="-369" type="line"/>
      <point x="1661" y="-369" type="line"/>
      <point x="1661" y="-311" type="line"/>
      <point x="1478" y="-311" type="line"/>
      <point x="1497" y="-277"/>
      <point x="1505" y="-234"/>
      <point x="1505" y="-198" type="curve" smooth="yes"/>
      <point x="1505" y="-111"/>
      <point x="1447" y="-53"/>
      <point x="1341" y="-53" type="curve" smooth="yes"/>
      <point x="1296" y="-53"/>
      <point x="1254" y="-66"/>
      <point x="1220" y="-88" type="curve"/>
      <point x="1168" y="-58"/>
      <point x="1106" y="-44"/>
      <point x="1038" y="-44" type="curve" smooth="yes"/>
      <point x="1033" y="-44" type="line"/>
      <point x="1033" y="554" type="line"/>
      <point x="947" y="554" type="line"/>
      <point x="947" y="176" type="line"/>
      <point x="810" y="176" type="line"/>
      <point x="814" y="200"/>
      <point x="816" y="226"/>
      <point x="816" y="252" type="curve" smooth="yes"/>
      <point x="816" y="412"/>
      <point x="708" y="566"/>
      <point x="503" y="566" type="curve" smooth="yes"/>
      <point x="399" y="566"/>
      <point x="300" y="517"/>
      <point x="300" y="393" type="curve" smooth="yes"/>
      <point x="300" y="292"/>
      <point x="372" y="241"/>
      <point x="463" y="241" type="curve" smooth="yes"/>
      <point x="568" y="241"/>
      <point x="626" y="302"/>
      <point x="626" y="396" type="curve" smooth="yes"/>
      <point x="626" y="426"/>
      <point x="616" y="453"/>
      <point x="601" y="477" type="curve"/>
      <point x="690" y="438"/>
      <point x="730" y="348"/>
      <point x="730" y="251" type="curve" smooth="yes"/>
      <point x="730" y="225"/>
      <point x="727" y="200"/>
      <point x="721" y="176" type="curve"/>
      <point x="206" y="176" type="line" smooth="yes"/>
      <point x="125" y="176"/>
      <point x="99" y="166"/>
      <point x="74" y="149" type="curve" smooth="yes"/>
      <point x="43" y="128"/>
      <point x="29" y="93"/>
    </contour>
    <contour>
      <point x="114" y="56" type="curve" smooth="yes"/>
      <point x="114" y="71"/>
      <point x="120" y="83"/>
      <point x="129" y="90" type="curve" smooth="yes"/>
      <point x="144" y="101"/>
      <point x="154" y="104"/>
      <point x="217" y="104" type="curve" smooth="yes"/>
      <point x="695" y="104" type="line"/>
      <point x="641" y="13"/>
      <point x="528" y="-51"/>
      <point x="344" y="-51" type="curve" smooth="yes"/>
      <point x="327" y="-51" type="line" smooth="yes"/>
      <point x="184" y="-51"/>
      <point x="114" y="-9"/>
    </contour>
    <contour>
      <point x="379" y="397" type="curve" smooth="yes"/>
      <point x="379" y="464"/>
      <point x="430" y="497"/>
      <point x="493" y="497" type="curve" smooth="yes"/>
      <point x="514" y="496" type="line"/>
      <point x="539" y="468"/>
      <point x="548" y="438"/>
      <point x="548" y="400" type="curve" smooth="yes"/>
      <point x="548" y="341"/>
      <point x="515" y="309"/>
      <point x="465" y="309" type="curve" smooth="yes"/>
      <point x="410" y="309"/>
      <point x="379" y="347"/>
    </contour>
    <contour>
      <point x="809" y="-232" type="curve" smooth="yes"/>
      <point x="809" y="-163"/>
      <point x="865" y="-120"/>
      <point x="956" y="-110" type="curve"/>
      <point x="956" y="-189" type="line" smooth="yes"/>
      <point x="956" y="-261"/>
      <point x="930" y="-304"/>
      <point x="876" y="-304" type="curve" smooth="yes"/>
      <point x="838" y="-304"/>
      <point x="809" y="-278"/>
    </contour>
    <contour>
      <point x="1163" y="-243" type="curve" smooth="yes"/>
      <point x="1163" y="-203"/>
      <point x="1185" y="-168"/>
      <point x="1219" y="-148" type="curve"/>
      <point x="1254" y="-166"/>
      <point x="1276" y="-200"/>
      <point x="1276" y="-243" type="curve" smooth="yes"/>
      <point x="1276" y="-282"/>
      <point x="1255" y="-308"/>
      <point x="1221" y="-308" type="curve" smooth="yes"/>
      <point x="1187" y="-308"/>
      <point x="1163" y="-282"/>
    </contour>
  </outline>
</glyph>
<glyph name="InPossessionSign" format="2">
  <advance width="1425"/>
  <unicode hex="11FEE"/>
  <outline>
    <contour>
      <point x="57" y="243" type="curve" smooth="yes"/>
      <point x="57" y="63"/>
      <point x="142" y="-12"/>
      <point x="249" y="-12" type="curve" smooth="yes"/>
      <point x="356" y="-12"/>
      <point x="422" y="54"/>
      <point x="422" y="165" type="curve" smooth="yes"/>
      <point x="422" y="265"/>
      <point x="357" y="328"/>
      <point x="261" y="328" type="curve" smooth="yes"/>
      <point x="218" y="328"/>
      <point x="175" y="313"/>
      <point x="140" y="290" type="curve"/>
      <point x="158" y="408"/>
      <point x="237" y="492"/>
      <point x="360" y="492" type="curve" smooth="yes"/>
      <point x="484" y="492"/>
      <point x="563" y="411"/>
      <point x="563" y="269" type="curve" smooth="yes"/>
      <point x="563" y="178"/>
      <point x="542" y="109"/>
      <point x="511" y="63" type="curve"/>
      <point x="515" y="0" type="line"/>
      <point x="881" y="0" type="line"/>
      <point x="881" y="-119" type="line"/>
      <point x="818" y="-142"/>
      <point x="792" y="-187"/>
      <point x="792" y="-244" type="curve" smooth="yes"/>
      <point x="792" y="-327"/>
      <point x="864" y="-376"/>
      <point x="958" y="-376" type="curve" smooth="yes"/>
      <point x="1092" y="-376"/>
      <point x="1145" y="-307"/>
      <point x="1145" y="-170" type="curve" smooth="yes"/>
      <point x="1145" y="-166" type="line"/>
      <point x="1385" y="-166" type="line"/>
      <point x="1385" y="72" type="line"/>
      <point x="1308" y="72" type="line"/>
      <point x="1308" y="-102" type="line"/>
      <point x="1145" y="-102" type="line"/>
      <point x="1145" y="2" type="line"/>
      <point x="1244" y="2" type="line"/>
      <point x="1244" y="68" type="line"/>
      <point x="956" y="68" type="line"/>
      <point x="956" y="554" type="line"/>
      <point x="870" y="554" type="line"/>
      <point x="870" y="72" type="line"/>
      <point x="603" y="72" type="line"/>
      <point x="630" y="131"/>
      <point x="651" y="194"/>
      <point x="651" y="280" type="curve" smooth="yes"/>
      <point x="651" y="437"/>
      <point x="567" y="566"/>
      <point x="364" y="566" type="curve" smooth="yes"/>
      <point x="199" y="566"/>
      <point x="57" y="457"/>
    </contour>
    <contour>
      <point x="137" y="212" type="curve"/>
      <point x="169" y="240"/>
      <point x="206" y="258"/>
      <point x="247" y="258" type="curve" smooth="yes"/>
      <point x="302" y="258"/>
      <point x="340" y="221"/>
      <point x="340" y="155" type="curve" smooth="yes"/>
      <point x="340" y="91"/>
      <point x="305" y="56"/>
      <point x="253" y="56" type="curve" smooth="yes"/>
      <point x="191" y="56"/>
      <point x="143" y="97"/>
    </contour>
    <contour>
      <point x="872" y="-243" type="curve" smooth="yes"/>
      <point x="872" y="-182"/>
      <point x="920" y="-166"/>
      <point x="986" y="-166" type="curve" smooth="yes"/>
      <point x="1068" y="-166" type="line"/>
      <point x="1068" y="-183" type="line" smooth="yes"/>
      <point x="1068" y="-277"/>
      <point x="1027" y="-310"/>
      <point x="962" y="-310" type="curve" smooth="yes"/>
      <point x="910" y="-310"/>
      <point x="872" y="-287"/>
    </contour>
    <contour>
      <point x="953" y="-104" type="curve"/>
      <point x="953" y="2" type="line"/>
      <point x="1068" y="2" type="line"/>
      <point x="1068" y="-102" type="line"/>
      <point x="993" y="-102" type="line" smooth="yes"/>
      <point x="979" y="-102"/>
      <point x="966" y="-103"/>
    </contour>
  </outline>
</glyph>
<glyph name="StartingFrom" format="2">
  <advance width="1344"/>
  <unicode hex="11FEF"/>
  <outline>
    <contour>
      <point x="60" y="231" type="line" smooth="yes"/>
      <point x="60" y="-103"/>
      <point x="216" y="-273"/>
      <point x="450" y="-273" type="curve" smooth="yes"/>
      <point x="656" y="-273"/>
      <point x="766" y="-161"/>
      <point x="779" y="0" type="curve"/>
      <point x="808" y="0" type="line" smooth="yes"/>
      <point x="923" y="0"/>
      <point x="983" y="14"/>
      <point x="1030" y="60" type="curve" smooth="yes"/>
      <point x="1074" y="103"/>
      <point x="1093" y="169"/>
      <point x="1093" y="262" type="curve" smooth="yes"/>
      <point x="1093" y="442"/>
      <point x="1025" y="566"/>
      <point x="876" y="566" type="curve" smooth="yes"/>
      <point x="812" y="566"/>
      <point x="771" y="548"/>
      <point x="741" y="515" type="curve" smooth="yes"/>
      <point x="711" y="481"/>
      <point x="696" y="437"/>
      <point x="696" y="355" type="curve" smooth="yes"/>
      <point x="696" y="72" type="line"/>
      <point x="470" y="72" type="line"/>
      <point x="470" y="554" type="line"/>
      <point x="384" y="554" type="line"/>
      <point x="384" y="0" type="line"/>
      <point x="695" y="0" type="line"/>
      <point x="681" y="-124"/>
      <point x="604" y="-196"/>
      <point x="450" y="-196" type="curve" smooth="yes"/>
      <point x="277" y="-196"/>
      <point x="146" y="-80"/>
      <point x="146" y="240" type="curve" smooth="yes"/>
      <point x="146" y="248" type="line" smooth="yes"/>
      <point x="146" y="603"/>
      <point x="331" y="768"/>
      <point x="588" y="768" type="curve" smooth="yes"/>
      <point x="741" y="768"/>
      <point x="844" y="717"/>
      <point x="940" y="673" type="curve" smooth="yes"/>
      <point x="957" y="665" type="line" smooth="yes"/>
      <point x="1040" y="626"/>
      <point x="1099" y="597"/>
      <point x="1184" y="597" type="curve" smooth="yes"/>
      <point x="1319" y="597"/>
      <point x="1399" y="675"/>
      <point x="1424" y="786" type="curve"/>
      <point x="1353" y="808" type="line"/>
      <point x="1329" y="722"/>
      <point x="1268" y="671"/>
      <point x="1176" y="671" type="curve" smooth="yes"/>
      <point x="1107" y="671"/>
      <point x="1063" y="699"/>
      <point x="977" y="738" type="curve" smooth="yes"/>
      <point x="955" y="748" type="line" smooth="yes"/>
      <point x="855" y="793"/>
      <point x="748" y="843"/>
      <point x="587" y="843" type="curve" smooth="yes"/>
      <point x="258" y="843"/>
      <point x="60" y="625"/>
      <point x="60" y="259" type="curve" smooth="yes"/>
    </contour>
    <contour>
      <point x="782" y="72" type="line"/>
      <point x="782" y="338" type="line" smooth="yes"/>
      <point x="782" y="420"/>
      <point x="792" y="447"/>
      <point x="814" y="471" type="curve" smooth="yes"/>
      <point x="829" y="487"/>
      <point x="851" y="494"/>
      <point x="874" y="494" type="curve" smooth="yes"/>
      <point x="967" y="494"/>
      <point x="1005" y="394"/>
      <point x="1005" y="267" type="curve" smooth="yes"/>
      <point x="1005" y="124"/>
      <point x="964" y="72"/>
      <point x="829" y="72" type="curve" smooth="yes"/>
    </contour>
  </outline>
</glyph>
<glyph name="Muthaliya" format="2">
  <advance width="1414"/>
  <unicode hex="11FF0"/>
  <outline>
    <contour>
      <point x="58" y="147" type="line" smooth="yes"/>
      <point x="58" y="-79"/>
      <point x="215" y="-321"/>
      <point x="664" y="-321" type="curve" smooth="yes"/>
      <point x="684" y="-321" type="line" smooth="yes"/>
      <point x="1128" y="-321"/>
      <point x="1342" y="-142"/>
      <point x="1342" y="278" type="curve" smooth="yes"/>
      <point x="1342" y="607"/>
      <point x="1177" y="827"/>
      <point x="924" y="827" type="curve" smooth="yes"/>
      <point x="786" y="827"/>
      <point x="709" y="755"/>
      <point x="709" y="660" type="curve" smooth="yes"/>
      <point x="709" y="616"/>
      <point x="728" y="577"/>
      <point x="755" y="549" type="curve"/>
      <point x="737" y="541"/>
      <point x="722" y="529"/>
      <point x="709" y="515" type="curve" smooth="yes"/>
      <point x="679" y="481"/>
      <point x="664" y="437"/>
      <point x="664" y="355" type="curve" smooth="yes"/>
      <point x="664" y="72" type="line"/>
      <point x="438" y="72" type="line"/>
      <point x="438" y="554" type="line"/>
      <point x="352" y="554" type="line"/>
      <point x="352" y="0" type="line"/>
      <point x="776" y="0" type="line" smooth="yes"/>
      <point x="891" y="0"/>
      <point x="951" y="14"/>
      <point x="998" y="60" type="curve" smooth="yes"/>
      <point x="1042" y="103"/>
      <point x="1061" y="169"/>
      <point x="1061" y="262" type="curve" smooth="yes"/>
      <point x="1061" y="442"/>
      <point x="993" y="566"/>
      <point x="844" y="566" type="curve" smooth="yes"/>
      <point x="833" y="566" type="line"/>
      <point x="808" y="587"/>
      <point x="792" y="620"/>
      <point x="792" y="654" type="curve" smooth="yes"/>
      <point x="792" y="714"/>
      <point x="838" y="751"/>
      <point x="924" y="751" type="curve" smooth="yes"/>
      <point x="1136" y="751"/>
      <point x="1254" y="537"/>
      <point x="1254" y="277" type="curve" smooth="yes"/>
      <point x="1254" y="-89"/>
      <point x="1075" y="-244"/>
      <point x="674" y="-244" type="curve" smooth="yes"/>
      <point x="295" y="-244"/>
      <point x="144" y="-55"/>
      <point x="144" y="157" type="curve" smooth="yes"/>
      <point x="144" y="292"/>
      <point x="192" y="401"/>
      <point x="270" y="510" type="curve"/>
      <point x="196" y="554" type="line"/>
      <point x="121" y="447"/>
      <point x="58" y="323"/>
      <point x="58" y="166" type="curve" smooth="yes"/>
    </contour>
    <contour>
      <point x="750" y="72" type="line"/>
      <point x="750" y="338" type="line" smooth="yes"/>
      <point x="750" y="420"/>
      <point x="760" y="447"/>
      <point x="782" y="471" type="curve" smooth="yes"/>
      <point x="797" y="487"/>
      <point x="819" y="494"/>
      <point x="842" y="494" type="curve" smooth="yes"/>
      <point x="935" y="494"/>
      <point x="973" y="394"/>
      <point x="973" y="267" type="curve" smooth="yes"/>
      <point x="973" y="124"/>
      <point x="932" y="72"/>
      <point x="797" y="72" type="curve" smooth="yes"/>
    </contour>
  </outline>
</glyph>
<glyph name="Vakaiyaraa" format="2">
  <advance width="1696"/>
  <unicode hex="11FF1"/>
  <guideline x="1229" y="-301" angle="0"/>
  <guideline x="1208" y="-242" angle="180"/>
  <guideline x="1208" y="50" angle="180"/>
  <outline>
    <contour>
      <point x="57" y="243" type="curve" smooth="yes"/>
      <point x="57" y="63"/>
      <point x="142" y="-12"/>
      <point x="249" y="-12" type="curve" smooth="yes"/>
      <point x="356" y="-12"/>
      <point x="422" y="54"/>
      <point x="422" y="165" type="curve" smooth="yes"/>
      <point x="422" y="265"/>
      <point x="357" y="328"/>
      <point x="261" y="328" type="curve" smooth="yes"/>
      <point x="218" y="328"/>
      <point x="175" y="313"/>
      <point x="140" y="290" type="curve"/>
      <point x="158" y="408"/>
      <point x="237" y="492"/>
      <point x="360" y="492" type="curve" smooth="yes"/>
      <point x="484" y="492"/>
      <point x="563" y="411"/>
      <point x="563" y="269" type="curve" smooth="yes"/>
      <point x="563" y="178"/>
      <point x="542" y="109"/>
      <point x="511" y="63" type="curve"/>
      <point x="515" y="0" type="line"/>
      <point x="870" y="0" type="line"/>
      <point x="869" y="-33"/>
      <point x="867" y="-62"/>
      <point x="860" y="-84" type="curve"/>
      <point x="316" y="-84" type="line" smooth="yes"/>
      <point x="247" y="-84"/>
      <point x="210" y="-114"/>
      <point x="210" y="-175" type="curve" smooth="yes"/>
      <point x="210" y="-285"/>
      <point x="329" y="-341"/>
      <point x="504" y="-341" type="curve" smooth="yes"/>
      <point x="510" y="-341" type="line" smooth="yes"/>
      <point x="706" y="-341"/>
      <point x="859" y="-281"/>
      <point x="927" y="-146" type="curve"/>
      <point x="1067" y="-146" type="line"/>
      <point x="1067" y="-152" type="line" smooth="yes"/>
      <point x="1067" y="-248"/>
      <point x="1117" y="-301"/>
      <point x="1196" y="-301" type="curve" smooth="yes"/>
      <point x="1262" y="-301"/>
      <point x="1308" y="-262"/>
      <point x="1308" y="-191" type="curve" smooth="yes"/>
      <point x="1308" y="-119"/>
      <point x="1271" y="-84"/>
      <point x="1188" y="-84" type="curve" smooth="yes"/>
      <point x="1143" y="-84" type="line"/>
      <point x="1162" y="-34"/>
      <point x="1206" y="-11"/>
      <point x="1259" y="-11" type="curve" smooth="yes"/>
      <point x="1335" y="-11"/>
      <point x="1369" y="-55"/>
      <point x="1375" y="-135" type="curve" smooth="yes"/>
      <point x="1377" y="-162" type="line" smooth="yes"/>
      <point x="1380" y="-201"/>
      <point x="1389" y="-241"/>
      <point x="1413" y="-265" type="curve" smooth="yes"/>
      <point x="1437" y="-289"/>
      <point x="1470" y="-301"/>
      <point x="1513" y="-301" type="curve" smooth="yes"/>
      <point x="1612" y="-301"/>
      <point x="1656" y="-234"/>
      <point x="1656" y="-137" type="curve" smooth="yes"/>
      <point x="1656" y="-57"/>
      <point x="1628" y="9"/>
      <point x="1592" y="61" type="curve"/>
      <point x="1528" y="23" type="line"/>
      <point x="1557" y="-19"/>
      <point x="1582" y="-72"/>
      <point x="1582" y="-133" type="curve" smooth="yes"/>
      <point x="1582" y="-199"/>
      <point x="1560" y="-236"/>
      <point x="1513" y="-236" type="curve" smooth="yes"/>
      <point x="1493" y="-236"/>
      <point x="1475" y="-229"/>
      <point x="1463" y="-213" type="curve" smooth="yes"/>
      <point x="1451" y="-197"/>
      <point x="1448" y="-172"/>
      <point x="1446" y="-141" type="curve" smooth="yes"/>
      <point x="1444" y="-113" type="line" smooth="yes"/>
      <point x="1437" y="-15"/>
      <point x="1378" y="51"/>
      <point x="1257" y="51" type="curve" smooth="yes"/>
      <point x="1177" y="51"/>
      <point x="1099" y="5"/>
      <point x="1075" y="-84" type="curve"/>
      <point x="944" y="-84" type="line"/>
      <point x="953" y="-38"/>
      <point x="956" y="30"/>
      <point x="956" y="80" type="curve" smooth="yes"/>
      <point x="956" y="554" type="line"/>
      <point x="870" y="554" type="line"/>
      <point x="870" y="72" type="line"/>
      <point x="603" y="72" type="line"/>
      <point x="630" y="131"/>
      <point x="651" y="194"/>
      <point x="651" y="280" type="curve" smooth="yes"/>
      <point x="651" y="437"/>
      <point x="567" y="566"/>
      <point x="364" y="566" type="curve" smooth="yes"/>
      <point x="199" y="566"/>
      <point x="57" y="457"/>
    </contour>
    <contour>
      <point x="137" y="212" type="curve"/>
      <point x="169" y="240"/>
      <point x="206" y="258"/>
      <point x="247" y="258" type="curve" smooth="yes"/>
      <point x="302" y="258"/>
      <point x="340" y="221"/>
      <point x="340" y="155" type="curve" smooth="yes"/>
      <point x="340" y="91"/>
      <point x="305" y="56"/>
      <point x="253" y="56" type="curve" smooth="yes"/>
      <point x="191" y="56"/>
      <point x="143" y="97"/>
    </contour>
    <contour>
      <point x="293" y="-180" type="curve" smooth="yes"/>
      <point x="293" y="-158"/>
      <point x="312" y="-156"/>
      <point x="328" y="-156" type="curve" smooth="yes"/>
      <point x="825" y="-156" type="line"/>
      <point x="827" y="-156" type="line"/>
      <point x="766" y="-238"/>
      <point x="658" y="-268"/>
      <point x="512" y="-268" type="curve" smooth="yes"/>
      <point x="502" y="-268" type="line" smooth="yes"/>
      <point x="366" y="-268"/>
      <point x="293" y="-230"/>
    </contour>
    <contour>
      <point x="1131" y="-154" type="curve"/>
      <point x="1131" y="-143" type="line"/>
      <point x="1180" y="-143" type="line" smooth="yes"/>
      <point x="1225" y="-143"/>
      <point x="1245" y="-160"/>
      <point x="1245" y="-194" type="curve" smooth="yes"/>
      <point x="1245" y="-228"/>
      <point x="1222" y="-242"/>
      <point x="1194" y="-242" type="curve" smooth="yes"/>
      <point x="1150" y="-242"/>
      <point x="1131" y="-212"/>
    </contour>
  </outline>
</glyph>
<glyph name="PunctuationEndOfText" format="2">
  <advance width="1552"/>
  <unicode hex="11FFF"/>
  <outline>
    <contour>
      <point x="57" y="242" type="curve" smooth="yes"/>
      <point x="57" y="63"/>
      <point x="142" y="-12"/>
      <point x="249" y="-12" type="curve" smooth="yes"/>
      <point x="356" y="-12"/>
      <point x="422" y="54"/>
      <point x="422" y="165" type="curve" smooth="yes"/>
      <point x="422" y="265"/>
      <point x="357" y="328"/>
      <point x="261" y="328" type="curve" smooth="yes"/>
      <point x="217" y="328"/>
      <point x="175" y="313"/>
      <point x="139" y="289" type="curve"/>
      <point x="156" y="418"/>
      <point x="236" y="492"/>
      <point x="356" y="492" type="curve" smooth="yes"/>
      <point x="495" y="492"/>
      <point x="557" y="402"/>
      <point x="557" y="263" type="curve" smooth="yes"/>
      <point x="557" y="0" type="line"/>
      <point x="643" y="0" type="line"/>
      <point x="643" y="261" type="line" smooth="yes"/>
      <point x="643" y="338"/>
      <point x="676" y="394"/>
      <point x="747" y="394" type="curve" smooth="yes"/>
      <point x="829" y="394"/>
      <point x="848" y="333"/>
      <point x="848" y="228" type="curve" smooth="yes"/>
      <point x="848" y="0" type="line"/>
      <point x="935" y="0" type="line"/>
      <point x="935" y="111" type="line" smooth="yes"/>
      <point x="935" y="184"/>
      <point x="969" y="234"/>
      <point x="1033" y="234" type="curve" smooth="yes"/>
      <point x="1106" y="234"/>
      <point x="1125" y="177"/>
      <point x="1125" y="78" type="curve" smooth="yes"/>
      <point x="1125" y="0" type="line"/>
      <point x="1535" y="0" type="line"/>
      <point x="1535" y="72" type="line"/>
      <point x="1212" y="72" type="line"/>
      <point x="1212" y="93" type="line" smooth="yes"/>
      <point x="1212" y="223"/>
      <point x="1167" y="306"/>
      <point x="1050" y="306" type="curve" smooth="yes"/>
      <point x="997" y="306"/>
      <point x="951" y="288"/>
      <point x="923" y="243" type="curve"/>
      <point x="922" y="379"/>
      <point x="876" y="466"/>
      <point x="756" y="466" type="curve" smooth="yes"/>
      <point x="687" y="466"/>
      <point x="635" y="433"/>
      <point x="609" y="381" type="curve"/>
      <point x="581" y="500"/>
      <point x="487" y="566"/>
      <point x="355" y="566" type="curve" smooth="yes"/>
      <point x="194" y="566"/>
      <point x="57" y="458"/>
    </contour>
    <contour>
      <point x="136" y="212" type="curve"/>
      <point x="169" y="240"/>
      <point x="206" y="258"/>
      <point x="247" y="258" type="curve" smooth="yes"/>
      <point x="302" y="258"/>
      <point x="340" y="221"/>
      <point x="340" y="155" type="curve" smooth="yes"/>
      <point x="340" y="91"/>
      <point x="305" y="56"/>
      <point x="253" y="56" type="curve" smooth="yes"/>
      <point x="191" y="56"/>
      <point x="142" y="98"/>
    </contour>
  </outline>
</glyph>
